M48
;Layer_Color=9474304
;FILE_FORMAT=2:5
INCH,LZ
;TYPE=PLATED
T1F00S00C0.01968
T2F00S00C0.02756
T3F00S00C0.09843
%
T01
X0170472Y0029921
X021063Y0028346
X021063Y0044094
X0215167
X022441Y0049213
X0231102Y0042126
X0228346Y0084646
X0155905Y0066929
X0148819Y0059449
X0142519Y0063386
X0202362Y0018898
X0277165Y0020472
X0291732Y0027165
Y001063
X0135827Y0008268
X011811Y0010236
X0122835Y0014961
X0124409Y0023622
X0109055Y0038583
X0097638Y003937
X009252Y0042126
X0101969Y0033465
X0106299Y0052362
X0105118Y0074016
X0116142Y0070472
X0122834Y0071653
X0125197Y0066929
X0085039Y0071653
X0078347Y002874
X0066142Y0023228
X0042126Y0020079
X0036614Y0018898
X0043307Y0033858
X0005502Y0032274
X0009449Y0084252
X0093307Y0018504
X007874Y0137795
X0083858Y0157087
X0009449Y0115748
X0283755Y0127165
X0288292
T02
X0007874Y0005748
Y0015748
X0017874
X0027874
Y0005748
X0017874
T03
X0015748Y0200787
M30
