%FSTAX25Y25*%
%MOIN*%
%SFA1B1*%

%IPPOS*%
%AMD58*
4,1,8,-0.011800,-0.027600,0.011800,-0.027600,0.027600,-0.011800,0.027600,0.011800,0.011800,0.027600,-0.011800,0.027600,-0.027600,0.011800,-0.027600,-0.011800,-0.011800,-0.027600,0.0*
1,1,0.031620,-0.011800,-0.011800*
1,1,0.031620,0.011800,-0.011800*
1,1,0.031620,0.011800,0.011800*
1,1,0.031620,-0.011800,0.011800*
%
%ADD57R,0.055240X0.055240*%
G04~CAMADD=58~8~0.0~0.0~552.4~552.4~158.1~0.0~15~0.0~0.0~0.0~0.0~0~0.0~0.0~0.0~0.0~0~0.0~0.0~0.0~180.0~552.0~552.0*
%ADD58D58*%
%ADD59C,0.047370*%
%ADD60C,0.145790*%
%LNvisitcardpcb-1*%
%LPD*%
G54D57*
X0007874Y0015748D03*
G54D58*
X0017874Y0015748D03*
X0027874D03*
X0007874Y0005748D03*
X0017874D03*
X0027874D03*
G54D59*
X007874Y0137795D03*
X0085039Y0071653D03*
X0093307Y0018504D03*
X0036614Y0018898D03*
X0066142Y0023228D03*
X0009449Y0084252D03*
Y0115748D03*
X0291732Y001063D03*
Y0027165D03*
X0042126Y0020079D03*
X0005502Y0032274D03*
X0078347Y002874D03*
X0097638Y003937D03*
X0202362Y0018898D03*
X0109055Y0038583D03*
X009252Y0042126D03*
X0105118Y0074016D03*
X0231102Y0042126D03*
X0116142Y0070472D03*
X022441Y0049213D03*
X0228346Y0084646D03*
X0106299Y0052362D03*
X0170472Y0029921D03*
X0125197Y0066929D03*
X0122834Y0071653D03*
X0155905Y0066929D03*
X0142519Y0063386D03*
X0277165Y0020472D03*
X0148819Y0059449D03*
X021063Y0028346D03*
X0101969Y0033465D03*
X011811Y0010236D03*
X0122835Y0014961D03*
X0083858Y0157087D03*
X0283755Y0127165D03*
X0288292D03*
X021063Y0044094D03*
X0215167D03*
X0124409Y0023622D03*
X0135827Y0008268D03*
X0043307Y0033858D03*
G54D60*
X0015748Y0200787D03*
M02*