%FSTAX25Y25*%
%MOIN*%
%SFA1B1*%

%IPPOS*%
%AMD45*
4,1,4,-0.013200,0.034200,-0.034200,0.013200,0.013200,-0.034200,0.034200,-0.013200,-0.013200,0.034200,0.0*
%
%AMD46*
4,1,4,0.034200,0.013200,0.013200,0.034200,-0.034200,-0.013200,-0.013200,-0.034200,0.034200,0.013200,0.0*
%
%AMD50*
4,1,8,-0.017800,-0.031500,0.017800,-0.031500,0.035500,-0.013700,0.035500,0.013700,0.017800,0.031500,-0.017800,0.031500,-0.035500,0.013700,-0.035500,-0.013700,-0.017800,-0.031500,0.0*
1,1,0.035460,-0.017800,-0.013700*
1,1,0.035460,0.017800,-0.013700*
1,1,0.035460,0.017800,0.013700*
1,1,0.035460,-0.017800,0.013700*
%
%AMD54*
4,1,4,-0.108700,-0.075300,-0.075300,-0.108700,0.108700,0.075300,0.075300,0.108700,-0.108700,-0.075300,0.0*
%
%AMD55*
4,1,4,-0.122600,-0.089200,-0.089200,-0.122600,0.122600,0.089200,0.089200,0.122600,-0.122600,-0.089200,0.0*
%
%AMD57*
4,1,8,-0.011800,-0.027600,0.011800,-0.027600,0.027600,-0.011800,0.027600,0.011800,0.011800,0.027600,-0.011800,0.027600,-0.027600,0.011800,-0.027600,-0.011800,-0.011800,-0.027600,0.0*
1,1,0.031620,-0.011800,-0.011800*
1,1,0.031620,0.011800,-0.011800*
1,1,0.031620,0.011800,0.011800*
1,1,0.031620,-0.011800,0.011800*
%
%ADD40R,0.043430X0.039500*%
%ADD41R,0.035560X0.027680*%
%ADD42R,0.043430X0.045400*%
%ADD43R,0.045400X0.043430*%
%ADD44R,0.096580X0.084770*%
G04~CAMADD=45~9~0.0~0.0~296.5~670.6~0.0~0.0~0~0.0~0.0~0.0~0.0~0~0.0~0.0~0.0~0.0~0~0.0~0.0~0.0~45.0~684.0~683.0*
%ADD45D45*%
G04~CAMADD=46~9~0.0~0.0~296.5~670.6~0.0~0.0~0~0.0~0.0~0.0~0.0~0~0.0~0.0~0.0~0.0~0~0.0~0.0~0.0~315.0~684.0~683.0*
%ADD46D46*%
%ADD47R,0.126110X0.185160*%
%ADD48R,0.039500X0.043430*%
%ADD49R,0.070990X0.062920*%
G04~CAMADD=50~8~0.0~0.0~709.9~629.2~177.3~0.0~15~0.0~0.0~0.0~0.0~0~0.0~0.0~0.0~0.0~0~0.0~0.0~0.0~180.0~710.0~630.0*
%ADD50D50*%
%ADD51R,0.029650X0.023750*%
%ADD52R,0.023750X0.029650*%
%ADD53R,0.224530X0.051310*%
G04~CAMADD=54~9~0.0~0.0~473.7~2603.6~0.0~0.0~0~0.0~0.0~0.0~0.0~0~0.0~0.0~0.0~0.0~0~0.0~0.0~0.0~135.0~2174.0~2173.0*
%ADD54D54*%
G04~CAMADD=55~9~0.0~0.0~473.7~2997.3~0.0~0.0~0~0.0~0.0~0.0~0.0~0~0.0~0.0~0.0~0.0~0~0.0~0.0~0.0~135.0~2452.0~2451.0*
%ADD55D55*%
%ADD56C,0.008870*%
G04~CAMADD=57~8~0.0~0.0~552.4~552.4~158.1~0.0~15~0.0~0.0~0.0~0.0~0~0.0~0.0~0.0~0.0~0~0.0~0.0~0.0~180.0~552.0~552.0*
%ADD57D57*%
%ADD58R,0.055240X0.055240*%
%ADD59C,0.047370*%
%ADD60C,0.145790*%
%LNvisitcardpcb-1*%
%LPD*%
G54D40*
X0254724Y0141043D03*
Y0146358D03*
X0130709Y0075886D03*
Y0070571D03*
X0303543Y0005906D03*
Y001122D03*
X0018504Y0172343D03*
Y0167028D03*
X0057874Y0197933D03*
Y0192618D03*
X0266929Y0146358D03*
Y0141043D03*
X021063Y0015748D03*
Y0021063D03*
X0285433Y0021555D03*
Y001624D03*
X0282283Y0146358D03*
Y0141043D03*
X0096457Y0172343D03*
Y0167028D03*
G54D41*
X0178051Y0064961D03*
X0182382D03*
X005748Y0157087D03*
X005315D03*
X0096457Y0129134D03*
X0092126D03*
X0018504Y0129528D03*
X0014173D03*
X0303543Y0064961D03*
X0299213D03*
X024252Y0043307D03*
X0238189D03*
X024252Y0084646D03*
X0238189D03*
X0083465Y0089764D03*
X0087795D03*
X0023228Y008937D03*
X0027559D03*
X0299213Y0029528D03*
X0303543D03*
X0238189Y0005906D03*
X024252D03*
X0238189Y0049213D03*
X024252D03*
X0183071Y0027559D03*
X017874D03*
G54D42*
X0029724Y0027559D03*
X0023622D03*
X0054921D03*
X0061024D03*
G54D43*
X0123622Y019065D03*
Y0196752D03*
G54D44*
X015748Y0185925D03*
Y0196752D03*
G54D45*
X0102263Y0060965D03*
X0100036Y0058738D03*
X0097808Y0056511D03*
X0095581Y0054284D03*
X0093354Y0052056D03*
X0091127Y0049829D03*
X00889Y0047602D03*
X0086673Y0045375D03*
X0110336Y0021712D03*
X0112563Y0023939D03*
X011479Y0026166D03*
X0117017Y0028394D03*
X0119244Y0030621D03*
X0121471Y0032848D03*
X0123698Y0035075D03*
X0125926Y0037302D03*
G54D46*
X0086673Y0037302D03*
X00889Y0035075D03*
X0091127Y0032848D03*
X0093354Y0030621D03*
X0095581Y0028394D03*
X0097808Y0026166D03*
X0100036Y0023939D03*
X0102263Y0021712D03*
X0125926Y0045375D03*
X0123698Y0047602D03*
X0121471Y0049829D03*
X0119244Y0052056D03*
X0117017Y0054284D03*
X011479Y0056511D03*
X0112563Y0058738D03*
X0110336Y0060965D03*
G54D47*
X019685Y019685D03*
X0248819D03*
G54D48*
X0183366Y0075984D03*
X0178051D03*
X0184153Y001378D03*
X0178839D03*
X0213287Y0073622D03*
X0207972D03*
X0275886Y0047244D03*
X0270571D03*
X0275886Y0027953D03*
X0270571D03*
X0275886Y0005906D03*
X0270571D03*
X0302658Y0132283D03*
X0297342D03*
X0313287Y0076378D03*
X0307972D03*
X0022244Y0059055D03*
X0027559D03*
X0097808Y007441D03*
X0092493D03*
X0147933Y0038386D03*
X0142618D03*
X0213287Y0051181D03*
X0207972D03*
G54D49*
X019685Y0056102D03*
Y0038386D03*
X0163779Y0056102D03*
Y0038386D03*
X025748Y0075787D03*
Y0058071D03*
X0224409Y0075787D03*
Y0058071D03*
X0257874Y0033465D03*
Y0015748D03*
X0224803Y0033465D03*
Y0015748D03*
X0318504Y0056102D03*
Y0038386D03*
X0285433Y0056102D03*
Y0038386D03*
G54D50*
X0163779Y0047244D03*
X022441Y0066929D03*
X0224803Y0024606D03*
X0285433Y0047244D03*
G54D51*
X0302756Y014685D03*
X0309055D03*
G54D52*
X0292849Y0146803D03*
Y0140503D03*
G54D53*
X0023622Y0043307D03*
X0061024D03*
G54D54*
X0302615Y0189483D03*
X0308183Y0183915D03*
G54D55*
X0297047Y0197835D03*
X0316534Y0178348D03*
G54D56*
X0265906Y0090715D02*
X0281306D01*
X0265406Y0090815D02*
X0281806D01*
X0265006Y0090915D02*
X0282206D01*
X0264706Y0091015D02*
X0282506D01*
X0264406Y0091115D02*
X0282806D01*
X0264206Y0091215D02*
X0283006D01*
X0264006Y0091315D02*
X0283206D01*
X0263806Y0091415D02*
X0283406D01*
X0263606Y0091515D02*
X0283606D01*
X0263506Y0091615D02*
X0283806D01*
X0263306Y0091715D02*
X0283906D01*
X0263206Y0091815D02*
X0284106D01*
X0263006Y0091915D02*
X0284206D01*
X0262906Y0092015D02*
X0284306D01*
X0262806Y0092115D02*
X0284506D01*
X0262606Y0092215D02*
X0284606D01*
X0262506Y0092315D02*
X0284706D01*
X0262406Y0092415D02*
X0284806D01*
X0262306Y0092515D02*
X0284906D01*
X0262206Y0092615D02*
X0285006D01*
X0262106Y0092715D02*
X0285106D01*
X0262006Y0092815D02*
X0285206D01*
X0261906Y0092915D02*
X0285306D01*
X0261906Y0093015D02*
X0285406D01*
X0261806Y0093115D02*
X0285406D01*
X0261706Y0093215D02*
X0285506D01*
X0261606Y0093315D02*
X0285606D01*
X0261606Y0093415D02*
X0285706D01*
X0261506Y0093515D02*
X0285706D01*
X0261406Y0093615D02*
X0285806D01*
X0261406Y0093715D02*
X0285906D01*
X0261306Y0093815D02*
X0285906D01*
X0261206Y0093915D02*
X0286006D01*
X0261206Y0094015D02*
X0286006D01*
X0261106Y0094115D02*
X0286106D01*
X0261106Y0094215D02*
X0286106D01*
X0261006Y0094315D02*
X0286206D01*
X0261006Y0094415D02*
X0286206D01*
X0260906Y0094515D02*
X0286306D01*
X0260906Y0094615D02*
X0286306D01*
X0260806Y0094715D02*
X0286406D01*
X0260806Y0094815D02*
X0286406D01*
X0260806Y0094915D02*
X0286406D01*
X0260706Y0095015D02*
X0286506D01*
X0260706Y0095115D02*
X0286506D01*
X0260706Y0095215D02*
X0286506D01*
X0260606Y0095315D02*
X0286606D01*
X0260606Y0095415D02*
X0286606D01*
X0260606Y0095515D02*
X0286606D01*
X0260606Y0095615D02*
X0286706D01*
X0260506Y0095715D02*
X0286706D01*
X0260506Y0095815D02*
X0286706D01*
X0260506Y0095915D02*
X0286706D01*
X0260506Y0096015D02*
X0286706D01*
X0260506Y0096115D02*
X0286806D01*
X0260406Y0096215D02*
X0286806D01*
X0260406Y0096315D02*
X0286806D01*
X0260406Y0096415D02*
X0286806D01*
X0260406Y0096515D02*
X0286806D01*
X0260406Y0096615D02*
X0286806D01*
X0260406Y0096715D02*
X0286806D01*
X0260406Y0096815D02*
X0286806D01*
X0260406Y0096915D02*
X0286806D01*
X0260406Y0097015D02*
X0286806D01*
X0260406Y0097115D02*
X0286806D01*
X0260406Y0097215D02*
X0286806D01*
X0260406Y0097315D02*
X0286806D01*
X0260406Y0097415D02*
X0286806D01*
X0260406Y0097515D02*
X0286806D01*
X0260406Y0097615D02*
X0286806D01*
X0260406Y0097715D02*
X0286806D01*
X0260406Y0097815D02*
X0286806D01*
X0279606Y0097915D02*
X0286806D01*
X0260406D02*
X0267606D01*
X0279606Y0098015D02*
X0286806D01*
X0260406D02*
X0267606D01*
X0279606Y0098115D02*
X0286806D01*
X0260406D02*
X0267606D01*
X0279606Y0098215D02*
X0286806D01*
X0260406D02*
X0267606D01*
X0279606Y0098315D02*
X0286806D01*
X0260406D02*
X0267606D01*
X0279606Y0098415D02*
X0286806D01*
X0260406D02*
X0267606D01*
X0279606Y0098515D02*
X0286806D01*
X0260406D02*
X0267606D01*
X0279606Y0098615D02*
X0286806D01*
X0260406D02*
X0267606D01*
X0279606Y0098715D02*
X0286806D01*
X0260406D02*
X0267606D01*
X0279606Y0098815D02*
X0286806D01*
X0260406D02*
X0267606D01*
X0279606Y0098915D02*
X0286806D01*
X0260406D02*
X0267606D01*
X0279606Y0099015D02*
X0286806D01*
X0260406D02*
X0267606D01*
X0279606Y0099115D02*
X0286806D01*
X0260406D02*
X0267606D01*
X0279606Y0099215D02*
X0286806D01*
X0260406D02*
X0267606D01*
X0279606Y0099315D02*
X0286806D01*
X0260406D02*
X0267606D01*
X0279606Y0099415D02*
X0286806D01*
X0260406D02*
X0267606D01*
X0279606Y0099515D02*
X0286806D01*
X0260406D02*
X0267606D01*
X0279606Y0099615D02*
X0286806D01*
X0260406D02*
X0267606D01*
X0279606Y0099715D02*
X0286806D01*
X0260406D02*
X0267606D01*
X0279606Y0099815D02*
X0286806D01*
X0260406D02*
X0267606D01*
X0279606Y0099915D02*
X0286806D01*
X0260406D02*
X0267606D01*
X0279606Y0100015D02*
X0286806D01*
X0260406D02*
X0267606D01*
X0279606Y0100115D02*
X0286806D01*
X0260406D02*
X0267606D01*
X0279606Y0100215D02*
X0286806D01*
X0260406D02*
X0267606D01*
X0279606Y0100315D02*
X0286806D01*
X0260406D02*
X0267606D01*
X0279606Y0100415D02*
X0286806D01*
X0260406D02*
X0267606D01*
X0279606Y0100515D02*
X0286806D01*
X0260406D02*
X0267606D01*
X0279606Y0100615D02*
X0286806D01*
X0260406D02*
X0267606D01*
X0279606Y0100715D02*
X0286806D01*
X0260406D02*
X0267606D01*
X0279606Y0100815D02*
X0286806D01*
X0260406D02*
X0267606D01*
X0279606Y0100915D02*
X0286806D01*
X0260406D02*
X0267606D01*
X0279606Y0101015D02*
X0286806D01*
X0260406D02*
X0267606D01*
X0279606Y0101115D02*
X0286806D01*
X0260406D02*
X0267606D01*
X0279606Y0101215D02*
X0286806D01*
X0260406D02*
X0267606D01*
X0279606Y0101315D02*
X0286806D01*
X0260406D02*
X0267606D01*
X0279606Y0101415D02*
X0286806D01*
X0260406D02*
X0267606D01*
X0279606Y0101515D02*
X0286806D01*
X0260406D02*
X0267606D01*
X0279606Y0101615D02*
X0286806D01*
X0260406D02*
X0267606D01*
X0279606Y0101715D02*
X0286806D01*
X0260406D02*
X0267606D01*
X0279606Y0101815D02*
X0286806D01*
X0260406D02*
X0267606D01*
X0279606Y0101915D02*
X0286806D01*
X0260406D02*
X0267606D01*
X0279606Y0102015D02*
X0286806D01*
X0260406D02*
X0267606D01*
X0279606Y0102115D02*
X0286806D01*
X0260406D02*
X0267606D01*
X0279606Y0102215D02*
X0286806D01*
X0260406D02*
X0267606D01*
X0279606Y0102315D02*
X0286806D01*
X0260406D02*
X0267606D01*
X0279606Y0102415D02*
X0286806D01*
X0260406D02*
X0267606D01*
X0279606Y0102515D02*
X0286806D01*
X0260406D02*
X0267606D01*
X0279606Y0102615D02*
X0286806D01*
X0260406D02*
X0267606D01*
X0279606Y0102715D02*
X0286806D01*
X0260406D02*
X0267606D01*
X0279606Y0102815D02*
X0286806D01*
X0260406D02*
X0267606D01*
X0279606Y0102915D02*
X0286806D01*
X0260406D02*
X0267606D01*
X0279606Y0103015D02*
X0286806D01*
X0260406D02*
X0267606D01*
X0279606Y0103115D02*
X0286806D01*
X0260406D02*
X0267606D01*
X0279606Y0103215D02*
X0286806D01*
X0260406D02*
X0267606D01*
X0279606Y0103315D02*
X0286806D01*
X0260406D02*
X0267606D01*
X0279606Y0103415D02*
X0286806D01*
X0260406D02*
X0267606D01*
X0279606Y0103515D02*
X0286806D01*
X0260406D02*
X0267606D01*
X0279606Y0103615D02*
X0286806D01*
X0260406D02*
X0267606D01*
X0279606Y0103715D02*
X0286806D01*
X0260406D02*
X0267606D01*
X0279606Y0103815D02*
X0286806D01*
X0260406D02*
X0267606D01*
X0279606Y0103915D02*
X0286806D01*
X0260406D02*
X0267606D01*
X0279606Y0104015D02*
X0286806D01*
X0260406D02*
X0267606D01*
X0279606Y0104115D02*
X0286806D01*
X0260406D02*
X0267606D01*
X0279606Y0104215D02*
X0286806D01*
X0260406D02*
X0267606D01*
X0279606Y0104315D02*
X0286806D01*
X0260406D02*
X0267606D01*
X0279606Y0104415D02*
X0286806D01*
X0260406D02*
X0267606D01*
X0279606Y0104515D02*
X0286806D01*
X0260406D02*
X0267606D01*
X0279606Y0104615D02*
X0286806D01*
X0260406D02*
X0267606D01*
X0279606Y0104715D02*
X0286806D01*
X0260406D02*
X0267606D01*
X0279606Y0104815D02*
X0286806D01*
X0260406D02*
X0267606D01*
X0279606Y0104915D02*
X0286806D01*
X0260406D02*
X0267606D01*
X0279606Y0105015D02*
X0286806D01*
X0260406D02*
X0267606D01*
X0279606Y0105115D02*
X0286806D01*
X0260406D02*
X0267606D01*
X0279606Y0105215D02*
X0286806D01*
X0260406D02*
X0267606D01*
X0279606Y0105315D02*
X0286806D01*
X0260406D02*
X0267606D01*
X0279606Y0105415D02*
X0286806D01*
X0260406D02*
X0267606D01*
X0279606Y0105515D02*
X0286806D01*
X0260406D02*
X0267606D01*
X0279606Y0105615D02*
X0286806D01*
X0260406D02*
X0267606D01*
X0279606Y0105715D02*
X0286806D01*
X0260406D02*
X0267606D01*
X0279606Y0105815D02*
X0286806D01*
X0260406D02*
X0267606D01*
X0279606Y0105915D02*
X0286806D01*
X0260406D02*
X0267606D01*
X0279606Y0106015D02*
X0286806D01*
X0260406D02*
X0267606D01*
X0279606Y0106115D02*
X0286806D01*
X0260406D02*
X0267606D01*
X0279606Y0106215D02*
X0286806D01*
X0260406D02*
X0267606D01*
X0279606Y0106315D02*
X0286806D01*
X0260406D02*
X0267606D01*
X0279606Y0106415D02*
X0286806D01*
X0260406D02*
X0267606D01*
X0279606Y0106515D02*
X0286806D01*
X0260406D02*
X0267606D01*
X0279606Y0106615D02*
X0286806D01*
X0260406D02*
X0267606D01*
X0279606Y0106715D02*
X0286806D01*
X0260406D02*
X0267606D01*
X0279606Y0106815D02*
X0286806D01*
X0260406D02*
X0267606D01*
X0279606Y0106915D02*
X0286806D01*
X0260406D02*
X0267606D01*
X0279606Y0107015D02*
X0286806D01*
X0260406D02*
X0267606D01*
X0279606Y0107115D02*
X0286806D01*
X0260406D02*
X0267606D01*
X0279606Y0107215D02*
X0286806D01*
X0260406D02*
X0267606D01*
X0279606Y0107315D02*
X0286806D01*
X0260406D02*
X0267606D01*
X0279606Y0107415D02*
X0286806D01*
X0260406D02*
X0267606D01*
X0279606Y0107515D02*
X0286806D01*
X0260406D02*
X0267606D01*
X0279606Y0107615D02*
X0286806D01*
X0260406D02*
X0267606D01*
X0279606Y0107715D02*
X0286806D01*
X0260406D02*
X0267606D01*
X0279606Y0107815D02*
X0286806D01*
X0260406D02*
X0267606D01*
X0279606Y0107915D02*
X0286806D01*
X0260406D02*
X0267606D01*
X0279606Y0108015D02*
X0286806D01*
X0260406D02*
X0267606D01*
X0279606Y0108115D02*
X0286806D01*
X0260406D02*
X0267606D01*
X0279606Y0108215D02*
X0286806D01*
X0260406D02*
X0267606D01*
X0279606Y0108315D02*
X0286806D01*
X0260406D02*
X0267606D01*
X0279606Y0108415D02*
X0286806D01*
X0260406D02*
X0267606D01*
X0279606Y0108515D02*
X0286806D01*
X0260406D02*
X0267606D01*
X0279606Y0108615D02*
X0286806D01*
X0260406D02*
X0267606D01*
X0279606Y0108715D02*
X0286806D01*
X0260406D02*
X0267606D01*
X0279606Y0108815D02*
X0286806D01*
X0260406D02*
X0267606D01*
X0279606Y0108915D02*
X0286806D01*
X0260406D02*
X0267606D01*
X0279606Y0109015D02*
X0286806D01*
X0260406D02*
X0267606D01*
X0279606Y0109115D02*
X0286806D01*
X0260406D02*
X0267606D01*
X0279606Y0109215D02*
X0286806D01*
X0260406D02*
X0267606D01*
X0279606Y0109315D02*
X0286806D01*
X0260406D02*
X0267606D01*
X0279606Y0109415D02*
X0286806D01*
X0260406D02*
X0267606D01*
X0279606Y0109515D02*
X0286806D01*
X0260406D02*
X0267606D01*
X0279606Y0109615D02*
X0286806D01*
X0260406D02*
X0267606D01*
X0279606Y0109715D02*
X0286806D01*
X0260406D02*
X0267606D01*
X0260406Y0109815D02*
X0286806D01*
X0260406Y0109915D02*
X0286806D01*
X0260406Y0110015D02*
X0286806D01*
X0260406Y0110115D02*
X0286806D01*
X0260406Y0110215D02*
X0286806D01*
X0260406Y0110315D02*
X0286806D01*
X0260406Y0110415D02*
X0286806D01*
X0260406Y0110515D02*
X0286806D01*
X0260406Y0110615D02*
X0286806D01*
X0260406Y0110715D02*
X0286806D01*
X0260406Y0110815D02*
X0286806D01*
X0260406Y0110915D02*
X0286806D01*
X0260406Y0111015D02*
X0286806D01*
X0260406Y0111115D02*
X0286806D01*
X0260406Y0111215D02*
X0286806D01*
X0260406Y0111315D02*
X0286806D01*
X0260406Y0111415D02*
X0286806D01*
X0260506Y0111515D02*
X0286706D01*
X0260506Y0111615D02*
X0286706D01*
X0260506Y0111715D02*
X0286706D01*
X0260506Y0111815D02*
X0286706D01*
X0260506Y0111915D02*
X0286706D01*
X0260606Y0112015D02*
X0286606D01*
X0260606Y0112115D02*
X0286606D01*
X0260606Y0112215D02*
X0286606D01*
X0260606Y0112315D02*
X0286606D01*
X0260706Y0112415D02*
X0286506D01*
X0260706Y0112515D02*
X0286506D01*
X0260706Y0112615D02*
X0286506D01*
X0260806Y0112715D02*
X0286406D01*
X0260806Y0112815D02*
X0286406D01*
X0260906Y0112915D02*
X0286306D01*
X0260906Y0113015D02*
X0286306D01*
X0261006Y0113115D02*
X0286306D01*
X0261006Y0113215D02*
X0286206D01*
X0261006Y0113315D02*
X0286206D01*
X0261106Y0113415D02*
X0286106D01*
X0261106Y0113515D02*
X0286106D01*
X0261206Y0113615D02*
X0286006D01*
X0261306Y0113715D02*
X0286006D01*
X0261306Y0113815D02*
X0285906D01*
X0261406Y0113915D02*
X0285806D01*
X0261406Y0114015D02*
X0285806D01*
X0261506Y0114115D02*
X0285706D01*
X0261606Y0114215D02*
X0285606D01*
X0261706Y0114315D02*
X0285506D01*
X0261706Y0114415D02*
X0285506D01*
X0261806Y0114515D02*
X0285406D01*
X0261906Y0114615D02*
X0285306D01*
X0262006Y0114715D02*
X0285206D01*
X0262106Y0114815D02*
X0285106D01*
X0262206Y0114915D02*
X0285006D01*
X0262306Y0115015D02*
X0285006D01*
X0262406Y0115115D02*
X0284806D01*
X0262506Y0115215D02*
X0284706D01*
X0262606Y0115315D02*
X0284606D01*
X0262706Y0115415D02*
X0284506D01*
X0262806Y0115515D02*
X0284406D01*
X0263006Y0115615D02*
X0284306D01*
X0263106Y0115715D02*
X0284106D01*
X0263206Y0115815D02*
X0284006D01*
X0263406Y0115915D02*
X0283806D01*
X0263506Y0116015D02*
X0283706D01*
X0263706Y0116115D02*
X0283506D01*
X0263906Y0116215D02*
X0283306D01*
X0264106Y0116315D02*
X0283106D01*
X0264306Y0116415D02*
X0282906D01*
X0264606Y0116515D02*
X0282706D01*
X0264806Y0116615D02*
X0282406D01*
X0265206Y0116715D02*
X0282006D01*
X0265606Y0116815D02*
X0281606D01*
X0266306Y0116915D02*
X0280906D01*
X0060269Y0110687D02*
X0066169D01*
X0044669D02*
X0050569D01*
X0060269Y0110787D02*
X0066069D01*
X0044769D02*
X0050569D01*
X0060269Y0110887D02*
X0066069D01*
X0044769D02*
X0050569D01*
X0060169Y0110987D02*
X0066069D01*
X0044769D02*
X0050669D01*
X0060169Y0111087D02*
X0066069D01*
X0044869D02*
X0050669D01*
X0060169Y0111187D02*
X0065969D01*
X0044869D02*
X0050669D01*
X0060169Y0111287D02*
X0065969D01*
X0044869D02*
X0050669D01*
X0060169Y0111387D02*
X0065969D01*
X0044869D02*
X0050669D01*
X0060169Y0111487D02*
X0065969D01*
X0044869D02*
X0050669D01*
X0060069Y0111587D02*
X0065969D01*
X0044869D02*
X0050769D01*
X0060069Y0111687D02*
X0065969D01*
X0044869D02*
X0050769D01*
X0060069Y0111787D02*
X0065969D01*
X0044969D02*
X0050769D01*
X0060069Y0111887D02*
X0065869D01*
X0044969D02*
X0050769D01*
X0060069Y0111987D02*
X0065869D01*
X0044969D02*
X0050769D01*
X0060069Y0112087D02*
X0065869D01*
X0044969D02*
X0050769D01*
X0060069Y0112187D02*
X0065869D01*
X0044969D02*
X0050769D01*
X0060069Y0112287D02*
X0065869D01*
X0044969D02*
X0050769D01*
X0059969Y0112387D02*
X0065869D01*
X0044969D02*
X0050869D01*
X0059969Y0112487D02*
X0065869D01*
X0044969D02*
X0050869D01*
X0059969Y0112587D02*
X0065869D01*
X0044969D02*
X0050869D01*
X0059969Y0112687D02*
X0065869D01*
X0044969D02*
X0050869D01*
X0059969Y0112787D02*
X0065869D01*
X0044969D02*
X0050869D01*
X0059969Y0112887D02*
X0065869D01*
X0044969D02*
X0050869D01*
X0059969Y0112987D02*
X0065869D01*
X0044969D02*
X0050869D01*
X0059969Y0113087D02*
X0065869D01*
X0044969D02*
X0050869D01*
X0059969Y0113187D02*
X0065869D01*
X0044969D02*
X0050869D01*
X0059969Y0113287D02*
X0065869D01*
X0044969D02*
X0050869D01*
X0059969Y0113387D02*
X0065869D01*
X0044969D02*
X0050869D01*
X0059969Y0113487D02*
X0065869D01*
X0044969D02*
X0050869D01*
X0059969Y0113587D02*
X0065769D01*
X0045069D02*
X0050869D01*
X0059969Y0113687D02*
X0065769D01*
X0045069D02*
X0050969D01*
X0059869Y0113787D02*
X0065769D01*
X0045069D02*
X0050969D01*
X0059869Y0113887D02*
X0065769D01*
X0045069D02*
X0050969D01*
X0059869Y0113987D02*
X0065769D01*
X0045069D02*
X0050969D01*
X0059869Y0114087D02*
X0065769D01*
X0045069D02*
X0050969D01*
X0059869Y0114187D02*
X0065769D01*
X0045069D02*
X0050969D01*
X0059869Y0114287D02*
X0065769D01*
X0045069D02*
X0050969D01*
X0059869Y0114387D02*
X0065769D01*
X0045069D02*
X0050969D01*
X0059869Y0114487D02*
X0065769D01*
X0045069D02*
X0050969D01*
X0059869Y0114587D02*
X0065769D01*
X0045069D02*
X0050969D01*
X0059869Y0114687D02*
X0065769D01*
X0045069D02*
X0050969D01*
X0059869Y0114787D02*
X0065769D01*
X0045069D02*
X0050969D01*
X0059869Y0114887D02*
X0065769D01*
X0045069D02*
X0050969D01*
X0059869Y0114987D02*
X0065769D01*
X0045069D02*
X0050969D01*
X0059869Y0115087D02*
X0065769D01*
X0045069D02*
X0050969D01*
X0059869Y0115187D02*
X0065769D01*
X0045069D02*
X0050969D01*
X0059869Y0115287D02*
X0065769D01*
X0045169D02*
X0050969D01*
X0059869Y0115387D02*
X0065669D01*
X0045169D02*
X0050969D01*
X0059869Y0115487D02*
X0065669D01*
X0045169D02*
X0050969D01*
X0059869Y0115587D02*
X0065669D01*
X0045169D02*
X0050969D01*
X0059869Y0115687D02*
X0065669D01*
X0045169D02*
X0050969D01*
X0059869Y0115787D02*
X0065669D01*
X0045169D02*
X0050969D01*
X0059869Y0115887D02*
X0065669D01*
X0045169D02*
X0050969D01*
X0059869Y0115987D02*
X0065669D01*
X0045169D02*
X0051069D01*
X0059769Y0116087D02*
X0065669D01*
X0045169D02*
X0051069D01*
X0059769Y0116187D02*
X0065669D01*
X0045169D02*
X0051069D01*
X0059769Y0116287D02*
X0065669D01*
X0045169D02*
X0051069D01*
X0059769Y0116387D02*
X0065669D01*
X0045169D02*
X0051069D01*
X0059769Y0116487D02*
X0065669D01*
X0045169D02*
X0051069D01*
X0059769Y0116587D02*
X0065669D01*
X0045169D02*
X0051069D01*
X0059769Y0116687D02*
X0065669D01*
X0045269D02*
X0051069D01*
X0059769Y0116787D02*
X0065569D01*
X0045269D02*
X0051069D01*
X0059769Y0116887D02*
X0065569D01*
X0045269D02*
X0051069D01*
X0059769Y0116987D02*
X0065569D01*
X0045269D02*
X0051069D01*
X0059769Y0117087D02*
X0065569D01*
X0045269D02*
X0051069D01*
X0059769Y0117187D02*
X0065569D01*
X0045269D02*
X0051069D01*
X0059769Y0117287D02*
X0065569D01*
X0045269D02*
X0051069D01*
X0059769Y0117387D02*
X0065569D01*
X0045269D02*
X0051069D01*
X0059669Y0117487D02*
X0065569D01*
X0045269D02*
X0051169D01*
X0059669Y0117587D02*
X0065569D01*
X0045269D02*
X0051169D01*
X0059569Y0117687D02*
X0065569D01*
X0045269D02*
X0051269D01*
X0059569Y0117787D02*
X0065569D01*
X0045269D02*
X0051269D01*
X0059469Y0117887D02*
X0065469D01*
X0045369D02*
X0051369D01*
X0059269Y0117987D02*
X0065469D01*
X0045369D02*
X0051569D01*
X0059169Y0118087D02*
X0065469D01*
X0045369D02*
X0051669D01*
X0058969Y0118187D02*
X0065469D01*
X0045369D02*
X0051869D01*
X0058769Y0118287D02*
X0065469D01*
X0057469D02*
X0058569D01*
X0052269D02*
X0053469D01*
X0045369D02*
X0052069D01*
X0057169Y0118387D02*
X0065469D01*
X0045369D02*
X0053669D01*
X0057069Y0118487D02*
X0065369D01*
X0045469D02*
X0053769D01*
X0056969Y0118587D02*
X0065369D01*
X0045469D02*
X0053869D01*
X0056869Y0118687D02*
X0065369D01*
X0045469D02*
X0053969D01*
X0056769Y0118787D02*
X0065369D01*
X0045469D02*
X0054069D01*
X0056669Y0118887D02*
X0065269D01*
X0045569D02*
X0054169D01*
X0056669Y0118987D02*
X0065269D01*
X0045569D02*
X0054169D01*
X0056669Y0119087D02*
X0065269D01*
X0045569D02*
X0054169D01*
X0056569Y0119187D02*
X0065169D01*
X0045669D02*
X0054269D01*
X0056569Y0119287D02*
X0065169D01*
X0045669D02*
X0054269D01*
X0056569Y0119387D02*
X0065069D01*
X0045769D02*
X0054269D01*
X0056569Y0119487D02*
X0065069D01*
X0045769D02*
X0054269D01*
X0056569Y0119587D02*
X0064969D01*
X0045869D02*
X0054269D01*
X0056569Y0119687D02*
X0064969D01*
X0045969D02*
X0054269D01*
X0056569Y0119787D02*
X0064869D01*
X0045969D02*
X0054269D01*
X0056569Y0119887D02*
X0064769D01*
X0046069D02*
X0054269D01*
X0056569Y0119987D02*
X0064769D01*
X0046069D02*
X0054269D01*
X0056569Y0120087D02*
X0064669D01*
X0046169D02*
X0054269D01*
X0056569Y0120187D02*
X0064569D01*
X0046269D02*
X0054269D01*
X0056669Y0120287D02*
X0064469D01*
X0046369D02*
X0054169D01*
X0056669Y0120387D02*
X0064369D01*
X0046469D02*
X0054169D01*
X0056669Y0120487D02*
X0064269D01*
X0046569D02*
X0054169D01*
X0056769Y0120587D02*
X0064169D01*
X0046669D02*
X0054069D01*
X0056869Y0120687D02*
X0064069D01*
X0046769D02*
X0054069D01*
X0056869Y0120787D02*
X0063969D01*
X0046869D02*
X0053969D01*
X0056969Y0120887D02*
X0063769D01*
X0047069D02*
X0053869D01*
X0057069Y0120987D02*
X0063669D01*
X0047169D02*
X0053769D01*
X0057069Y0121087D02*
X0063569D01*
X0047269D02*
X0053769D01*
X0057169Y0121187D02*
X0063369D01*
X0047469D02*
X0053669D01*
X0057369Y0121287D02*
X0063269D01*
X0047569D02*
X0053469D01*
X0057469Y0121387D02*
X0063069D01*
X0047769D02*
X0053369D01*
X0057569Y0121487D02*
X0062969D01*
X0047869D02*
X0053269D01*
X0057769Y0121587D02*
X0062769D01*
X0048069D02*
X0053069D01*
X0057869Y0121687D02*
X0062569D01*
X0048269D02*
X0052969D01*
X0058169Y0121787D02*
X0062369D01*
X0048469D02*
X0052669D01*
X0058369Y0121887D02*
X0062169D01*
X0048669D02*
X0052469D01*
X0058669Y0121987D02*
X0061869D01*
X0048969D02*
X0052169D01*
X0059169Y0122087D02*
X0061369D01*
X0049469D02*
X0051669D01*
X0044669Y0110587D02*
X0050569D01*
X0060269D02*
X0066169D01*
X0044569Y0110487D02*
X0050469D01*
X0060369D02*
X0066269D01*
X0044569Y0110387D02*
X0050469D01*
X0060369D02*
X0066269D01*
X0044469Y0110287D02*
X0050469D01*
X0060369D02*
X0066369D01*
X0044269Y0110187D02*
X0050369D01*
X0060469D02*
X0066569D01*
X0044069Y0110087D02*
X0050369D01*
X0060469D02*
X0066769D01*
X0043669Y0109987D02*
X0050269D01*
X0060569D02*
X0067169D01*
X0043169Y0109887D02*
X0050269D01*
X0060569D02*
X0067669D01*
X0042669Y0109787D02*
X0050169D01*
X0060669D02*
X0068169D01*
X0042369Y0109687D02*
X0050169D01*
X0060669D02*
X0068469D01*
X0042069Y0109587D02*
X0050069D01*
X0060769D02*
X0068769D01*
X0041869Y0109487D02*
X0050069D01*
X0060769D02*
X0068969D01*
X0041769Y0109387D02*
X0049969D01*
X0060869D02*
X0069069D01*
X0041569Y0109287D02*
X0049869D01*
X0060969D02*
X0069269D01*
X0041569Y0109187D02*
X0049869D01*
X0060969D02*
X0069369D01*
X0041469Y0109087D02*
X0049769D01*
X0061069D02*
X0069369D01*
X0041369Y0108987D02*
X0049669D01*
X0061169D02*
X0069469D01*
X0041369Y0108887D02*
X0049569D01*
X0061269D02*
X0069569D01*
X0041269Y0108787D02*
X0049469D01*
X0061369D02*
X0069569D01*
X0041269Y0108687D02*
X0049369D01*
X0061469D02*
X0069569D01*
X0041269Y0108587D02*
X0049269D01*
X0061569D02*
X0069669D01*
X0041169Y0108487D02*
X0049169D01*
X0061669D02*
X0069669D01*
X0041169Y0108387D02*
X0049069D01*
X0061769D02*
X0069669D01*
X0041169Y0108287D02*
X0048969D01*
X0061869D02*
X0069669D01*
X0041169Y0108187D02*
X0048869D01*
X0061969D02*
X0069669D01*
X0041169Y0108087D02*
X0048669D01*
X0062169D02*
X0069669D01*
X0041169Y0107987D02*
X0048569D01*
X0062269D02*
X0069669D01*
X0041169Y0107887D02*
X0048469D01*
X0062369D02*
X0069669D01*
X0041169Y0107787D02*
X0048569D01*
X0062269D02*
X0069669D01*
X0041169Y0107687D02*
X0048769D01*
X0062069D02*
X0069669D01*
X0041169Y0107587D02*
X0048869D01*
X0061969D02*
X0069669D01*
X0041169Y0107487D02*
X0048969D01*
X0061869D02*
X0069669D01*
X0041169Y0107387D02*
X0049169D01*
X0061669D02*
X0069669D01*
X0041169Y0107287D02*
X0049269D01*
X0061569D02*
X0069669D01*
X0041269Y0107187D02*
X0049369D01*
X0061469D02*
X0069569D01*
X0041269Y0107087D02*
X0049469D01*
X0061369D02*
X0069569D01*
X0041269Y0106987D02*
X0049569D01*
X0061269D02*
X0069569D01*
X0041369Y0106887D02*
X0049669D01*
X0061169D02*
X0069469D01*
X0041369Y0106787D02*
X0049669D01*
X0061169D02*
X0069469D01*
X0041469Y0106687D02*
X0049769D01*
X0061069D02*
X0069369D01*
X0041569Y0106587D02*
X0049869D01*
X0060969D02*
X0069269D01*
X0041669Y0106487D02*
X0049969D01*
X0060869D02*
X0069169D01*
X0041769Y0106387D02*
X0049969D01*
X0060869D02*
X0069069D01*
X0041969Y0106287D02*
X0050069D01*
X0060769D02*
X0068869D01*
X0042169Y0106187D02*
X0050069D01*
X0060769D02*
X0068669D01*
X0042469Y0106087D02*
X0050169D01*
X0060669D02*
X0068369D01*
X0042769Y0105987D02*
X0050269D01*
X0060669D02*
X0068069D01*
X0043269Y0105887D02*
X0050269D01*
X0060569D02*
X0067569D01*
X0043869Y0105787D02*
X0050269D01*
X0060569D02*
X0066969D01*
X0044169Y0105687D02*
X0050369D01*
X0060469D02*
X0066669D01*
X0044369Y0105587D02*
X0050369D01*
X0060469D02*
X0066469D01*
X0044469Y0105487D02*
X0050469D01*
X0060369D02*
X0066369D01*
X0044569Y0105387D02*
X0050469D01*
X0060369D02*
X0066269D01*
X0044569Y0105287D02*
X0050469D01*
X0060369D02*
X0066269D01*
X0044669Y0105187D02*
X0050569D01*
X0060269D02*
X0066169D01*
X0044669Y0105087D02*
X0050569D01*
X0060269D02*
X0066169D01*
X0044769Y0104987D02*
X0050569D01*
X0060269D02*
X0066069D01*
X0044769Y0104887D02*
X0050569D01*
X0060269D02*
X0066069D01*
X0044769Y0104787D02*
X0050669D01*
X0060169D02*
X0066069D01*
X0059369Y0093687D02*
X0061069D01*
X0049769D02*
X0051469D01*
X0058869Y0093787D02*
X0061669D01*
X0049169D02*
X0051969D01*
X0058469Y0093887D02*
X0062069D01*
X0048769D02*
X0052369D01*
X0058169Y0093987D02*
X0062269D01*
X0048569D02*
X0052669D01*
X0057969Y0094087D02*
X0062569D01*
X0048269D02*
X0052869D01*
X0057769Y0094187D02*
X0062669D01*
X0048169D02*
X0053069D01*
X0057669Y0094287D02*
X0062869D01*
X0047969D02*
X0053169D01*
X0057469Y0094387D02*
X0063069D01*
X0047769D02*
X0053369D01*
X0057369Y0094487D02*
X0063169D01*
X0047669D02*
X0053469D01*
X0057269Y0094587D02*
X0063369D01*
X0047469D02*
X0053569D01*
X0057169Y0094687D02*
X0063469D01*
X0047369D02*
X0053669D01*
X0057069Y0094787D02*
X0063669D01*
X0047169D02*
X0053769D01*
X0056969Y0094887D02*
X0063769D01*
X0047069D02*
X0053869D01*
X0056869Y0094987D02*
X0063869D01*
X0046969D02*
X0053969D01*
X0056869Y0095087D02*
X0064069D01*
X0046769D02*
X0053969D01*
X0056769Y0095187D02*
X0064169D01*
X0046669D02*
X0054069D01*
X0056769Y0095287D02*
X0064269D01*
X0046569D02*
X0054069D01*
X0056669Y0095387D02*
X0064369D01*
X0046469D02*
X0054169D01*
X0056669Y0095487D02*
X0064469D01*
X0046369D02*
X0054169D01*
X0056569Y0095587D02*
X0064569D01*
X0046269D02*
X0054269D01*
X0056569Y0095687D02*
X0064569D01*
X0046269D02*
X0054269D01*
X0056569Y0095787D02*
X0064669D01*
X0046169D02*
X0054269D01*
X0056569Y0095887D02*
X0064769D01*
X0046069D02*
X0054269D01*
X0056569Y0095987D02*
X0064869D01*
X0045969D02*
X0054269D01*
X0056569Y0096087D02*
X0064869D01*
X0045969D02*
X0054269D01*
X0056569Y0096187D02*
X0064969D01*
X0045869D02*
X0054269D01*
X0056569Y0096287D02*
X0065069D01*
X0045869D02*
X0054269D01*
X0056569Y0096387D02*
X0065069D01*
X0045769D02*
X0054269D01*
X0056569Y0096487D02*
X0065169D01*
X0045769D02*
X0054269D01*
X0056569Y0096587D02*
X0065169D01*
X0045669D02*
X0054269D01*
X0056569Y0096687D02*
X0065169D01*
X0045669D02*
X0054269D01*
X0056669Y0096787D02*
X0065269D01*
X0045569D02*
X0054169D01*
X0056669Y0096887D02*
X0065269D01*
X0045569D02*
X0054169D01*
X0056769Y0096987D02*
X0065269D01*
X0045569D02*
X0054069D01*
X0056869Y0097087D02*
X0065369D01*
X0045469D02*
X0053969D01*
X0056869Y0097187D02*
X0065369D01*
X0045469D02*
X0053969D01*
X0056969Y0097287D02*
X0065369D01*
X0045469D02*
X0053869D01*
X0057169Y0097387D02*
X0065469D01*
X0045369D02*
X0053669D01*
X0057369Y0097487D02*
X0065469D01*
X0045369D02*
X0053469D01*
X0058969Y0097587D02*
X0065469D01*
X0045369D02*
X0051869D01*
X0059069Y0097687D02*
X0065469D01*
X0045369D02*
X0051769D01*
X0059269Y0097787D02*
X0065469D01*
X0045369D02*
X0051569D01*
X0059369Y0097887D02*
X0065469D01*
X0045369D02*
X0051469D01*
X0059469Y0097987D02*
X0065569D01*
X0045269D02*
X0051369D01*
X0059569Y0098087D02*
X0065569D01*
X0045269D02*
X0051269D01*
X0059669Y0098187D02*
X0065569D01*
X0045269D02*
X0051169D01*
X0059669Y0098287D02*
X0065569D01*
X0045269D02*
X0051169D01*
X0059769Y0098387D02*
X0065569D01*
X0045269D02*
X0051169D01*
X0059769Y0098487D02*
X0065569D01*
X0045269D02*
X0051069D01*
X0059769Y0098587D02*
X0065569D01*
X0045269D02*
X0051069D01*
X0059769Y0098687D02*
X0065569D01*
X0045269D02*
X0051069D01*
X0059769Y0098787D02*
X0065569D01*
X0045269D02*
X0051069D01*
X0059769Y0098887D02*
X0065569D01*
X0045269D02*
X0051069D01*
X0059769Y0098987D02*
X0065569D01*
X0045269D02*
X0051069D01*
X0059769Y0099087D02*
X0065569D01*
X0045269D02*
X0051069D01*
X0059769Y0099187D02*
X0065669D01*
X0045169D02*
X0051069D01*
X0059769Y0099287D02*
X0065669D01*
X0045169D02*
X0051069D01*
X0059769Y0099387D02*
X0065669D01*
X0045169D02*
X0051069D01*
X0059769Y0099487D02*
X0065669D01*
X0045169D02*
X0051069D01*
X0059769Y0099587D02*
X0065669D01*
X0045169D02*
X0051069D01*
X0059769Y0099687D02*
X0065669D01*
X0045169D02*
X0051069D01*
X0059869Y0099787D02*
X0065669D01*
X0045169D02*
X0051069D01*
X0059869Y0099887D02*
X0065669D01*
X0045169D02*
X0050969D01*
X0059869Y0099987D02*
X0065669D01*
X0045169D02*
X0050969D01*
X0059869Y0100087D02*
X0065669D01*
X0045169D02*
X0050969D01*
X0059869Y0100187D02*
X0065669D01*
X0045169D02*
X0050969D01*
X0059869Y0100287D02*
X0065669D01*
X0045169D02*
X0050969D01*
X0059869Y0100387D02*
X0065669D01*
X0045169D02*
X0050969D01*
X0059869Y0100487D02*
X0065669D01*
X0045169D02*
X0050969D01*
X0059869Y0100587D02*
X0065769D01*
X0045069D02*
X0050969D01*
X0059869Y0100687D02*
X0065769D01*
X0045069D02*
X0050969D01*
X0059869Y0100787D02*
X0065769D01*
X0045069D02*
X0050969D01*
X0059869Y0100887D02*
X0065769D01*
X0045069D02*
X0050969D01*
X0059869Y0100987D02*
X0065769D01*
X0045069D02*
X0050969D01*
X0059869Y0101087D02*
X0065769D01*
X0045069D02*
X0050969D01*
X0059869Y0101187D02*
X0065769D01*
X0045069D02*
X0050969D01*
X0059869Y0101287D02*
X0065769D01*
X0045069D02*
X0050969D01*
X0059869Y0101387D02*
X0065769D01*
X0045069D02*
X0050969D01*
X0059869Y0101487D02*
X0065769D01*
X0045069D02*
X0050969D01*
X0059869Y0101587D02*
X0065769D01*
X0045069D02*
X0050969D01*
X0059869Y0101687D02*
X0065769D01*
X0045069D02*
X0050969D01*
X0059869Y0101787D02*
X0065769D01*
X0045069D02*
X0050969D01*
X0059869Y0101887D02*
X0065769D01*
X0045069D02*
X0050969D01*
X0059869Y0101987D02*
X0065769D01*
X0045069D02*
X0050969D01*
X0059969Y0102087D02*
X0065769D01*
X0045069D02*
X0050969D01*
X0059969Y0102187D02*
X0065769D01*
X0045069D02*
X0050869D01*
X0059969Y0102287D02*
X0065869D01*
X0045069D02*
X0050869D01*
X0059969Y0102387D02*
X0065869D01*
X0044969D02*
X0050869D01*
X0059969Y0102487D02*
X0065869D01*
X0044969D02*
X0050869D01*
X0059969Y0102587D02*
X0065869D01*
X0044969D02*
X0050869D01*
X0059969Y0102687D02*
X0065869D01*
X0044969D02*
X0050869D01*
X0059969Y0102787D02*
X0065869D01*
X0044969D02*
X0050869D01*
X0059969Y0102887D02*
X0065869D01*
X0044969D02*
X0050869D01*
X0059969Y0102987D02*
X0065869D01*
X0044969D02*
X0050869D01*
X0059969Y0103087D02*
X0065869D01*
X0044969D02*
X0050869D01*
X0059969Y0103187D02*
X0065869D01*
X0044969D02*
X0050869D01*
X0059969Y0103287D02*
X0065869D01*
X0044969D02*
X0050869D01*
X0059969Y0103387D02*
X0065869D01*
X0044969D02*
X0050869D01*
X0060069Y0103487D02*
X0065869D01*
X0044969D02*
X0050769D01*
X0060069Y0103587D02*
X0065869D01*
X0044969D02*
X0050769D01*
X0060069Y0103687D02*
X0065869D01*
X0044969D02*
X0050769D01*
X0060069Y0103787D02*
X0065869D01*
X0044969D02*
X0050769D01*
X0060069Y0103887D02*
X0065869D01*
X0044969D02*
X0050769D01*
X0060069Y0103987D02*
X0065969D01*
X0044969D02*
X0050769D01*
X0060069Y0104087D02*
X0065969D01*
X0044869D02*
X0050769D01*
X0060069Y0104187D02*
X0065969D01*
X0044869D02*
X0050769D01*
X0060169Y0104287D02*
X0065969D01*
X0044869D02*
X0050669D01*
X0060169Y0104387D02*
X0065969D01*
X0044869D02*
X0050669D01*
X0060169Y0104487D02*
X0065969D01*
X0044869D02*
X0050669D01*
X0060169Y0104587D02*
X0065969D01*
X0044869D02*
X0050669D01*
X0060169Y0104687D02*
X0065969D01*
X0044869D02*
X0050669D01*
X0228706Y0090715D02*
X0249106D01*
X0228506Y0090815D02*
X0249606D01*
X0228406Y0090915D02*
X0249906D01*
X0228206Y0091015D02*
X0250206D01*
X0228106Y0091115D02*
X0250506D01*
X0228106Y0091215D02*
X0250706D01*
X0228006Y0091315D02*
X0250906D01*
X0227906Y0091415D02*
X0251106D01*
X0227906Y0091515D02*
X0251306D01*
X0227906Y0091615D02*
X0251506D01*
X0227806Y0091715D02*
X0251606D01*
X0227806Y0091815D02*
X0251806D01*
X0227806Y0091915D02*
X0251906D01*
X0227806Y0092015D02*
X0252006D01*
X0227806Y0092115D02*
X0252206D01*
X0227806Y0092215D02*
X0252306D01*
X0227806Y0092315D02*
X0252406D01*
X0227806Y0092415D02*
X0252506D01*
X0227806Y0092515D02*
X0252606D01*
X0227806Y0092615D02*
X0252706D01*
X0227806Y0092715D02*
X0252806D01*
X0227806Y0092815D02*
X0252906D01*
X0227806Y0092915D02*
X0253006D01*
X0227806Y0093015D02*
X0253106D01*
X0227806Y0093115D02*
X0253106D01*
X0227806Y0093215D02*
X0253206D01*
X0227806Y0093315D02*
X0253306D01*
X0227806Y0093415D02*
X0253406D01*
X0227806Y0093515D02*
X0253406D01*
X0227806Y0093615D02*
X0253506D01*
X0227806Y0093715D02*
X0253606D01*
X0227806Y0093815D02*
X0253606D01*
X0227806Y0093915D02*
X0253706D01*
X0227806Y0094015D02*
X0253706D01*
X0227806Y0094115D02*
X0253806D01*
X0227806Y0094215D02*
X0253806D01*
X0227806Y0094315D02*
X0253906D01*
X0227806Y0094415D02*
X0253906D01*
X0227806Y0094515D02*
X0254006D01*
X0227806Y0094615D02*
X0254006D01*
X0227806Y0094715D02*
X0254106D01*
X0227806Y0094815D02*
X0254106D01*
X0227806Y0094915D02*
X0254106D01*
X0227806Y0095015D02*
X0254206D01*
X0227806Y0095115D02*
X0254206D01*
X0227806Y0095215D02*
X0254206D01*
X0227806Y0095315D02*
X0254306D01*
X0227806Y0095415D02*
X0254306D01*
X0227806Y0095515D02*
X0254306D01*
X0227806Y0095615D02*
X0254406D01*
X0227806Y0095715D02*
X0254406D01*
X0227806Y0095815D02*
X0254406D01*
X0227806Y0095915D02*
X0254406D01*
X0227806Y0096015D02*
X0254406D01*
X0227806Y0096115D02*
X0254506D01*
X0227806Y0096215D02*
X0254506D01*
X0227806Y0096315D02*
X0254506D01*
X0227806Y0096415D02*
X0254506D01*
X0227806Y0096515D02*
X0254506D01*
X0227806Y0096615D02*
X0254506D01*
X0227806Y0096715D02*
X0254506D01*
X0227806Y0096815D02*
X0254506D01*
X0227906Y0096915D02*
X0254506D01*
X0227906Y0097015D02*
X0254506D01*
X0228006Y0097115D02*
X0254506D01*
X0228006Y0097215D02*
X0254506D01*
X0228106Y0097315D02*
X0254506D01*
X0228206Y0097415D02*
X0254506D01*
X0228306Y0097515D02*
X0254506D01*
X0228506Y0097615D02*
X0254506D01*
X0228706Y0097715D02*
X0254506D01*
X0229106Y0097815D02*
X0254506D01*
X0247306Y0097915D02*
X0254506D01*
X0247306Y0098015D02*
X0254506D01*
X0247306Y0098115D02*
X0254506D01*
X0247306Y0098215D02*
X0254506D01*
X0247306Y0098315D02*
X0254506D01*
X0247306Y0098415D02*
X0254506D01*
X0247306Y0098515D02*
X0254506D01*
X0247306Y0098615D02*
X0254506D01*
X0247306Y0098715D02*
X0254506D01*
X0247306Y0098815D02*
X0254506D01*
X0247306Y0098915D02*
X0254506D01*
X0247306Y0099015D02*
X0254506D01*
X0247306Y0099115D02*
X0254506D01*
X0247306Y0099215D02*
X0254506D01*
X0247306Y0099315D02*
X0254506D01*
X0247306Y0099415D02*
X0254506D01*
X0247306Y0099515D02*
X0254506D01*
X0247306Y0099615D02*
X0254506D01*
X0247306Y0099715D02*
X0254506D01*
X0247306Y0099815D02*
X0254506D01*
X0247306Y0099915D02*
X0254506D01*
X0247306Y0100015D02*
X0254506D01*
X0247306Y0100115D02*
X0254506D01*
X0247306Y0100215D02*
X0254506D01*
X0247306Y0100315D02*
X0254506D01*
X0247306Y0100415D02*
X0254506D01*
X0247306Y0100515D02*
X0254506D01*
X0247306Y0100615D02*
X0254506D01*
X0247306Y0100715D02*
X0254506D01*
X0247306Y0100815D02*
X0254506D01*
X0247306Y0100915D02*
X0254506D01*
X0247306Y0101015D02*
X0254506D01*
X0247306Y0101115D02*
X0254506D01*
X0247306Y0101215D02*
X0254506D01*
X0247306Y0101315D02*
X0254506D01*
X0247306Y0101415D02*
X0254506D01*
X0247306Y0101515D02*
X0254506D01*
X0247306Y0101615D02*
X0254506D01*
X0247306Y0101715D02*
X0254506D01*
X0247306Y0101815D02*
X0254506D01*
X0247306Y0101915D02*
X0254506D01*
X0247306Y0102015D02*
X0254506D01*
X0247306Y0102115D02*
X0254506D01*
X0247306Y0102215D02*
X0254506D01*
X0247306Y0102315D02*
X0254506D01*
X0247306Y0102415D02*
X0254506D01*
X0247306Y0102515D02*
X0254506D01*
X0247306Y0102615D02*
X0254506D01*
X0247306Y0102715D02*
X0254506D01*
X0247306Y0102815D02*
X0254506D01*
X0247306Y0102915D02*
X0254506D01*
X0247306Y0103015D02*
X0254506D01*
X0247306Y0103115D02*
X0254506D01*
X0247306Y0103215D02*
X0254506D01*
X0247306Y0103315D02*
X0254506D01*
X0247306Y0103415D02*
X0254506D01*
X0247306Y0103515D02*
X0254506D01*
X0247306Y0103615D02*
X0254506D01*
X0247306Y0103715D02*
X0254506D01*
X0247306Y0103815D02*
X0254506D01*
X0247306Y0103915D02*
X0254506D01*
X0247306Y0104015D02*
X0254506D01*
X0247306Y0104115D02*
X0254506D01*
X0247306Y0104215D02*
X0254506D01*
X0247306Y0104315D02*
X0254506D01*
X0247306Y0104415D02*
X0254506D01*
X0247306Y0104515D02*
X0254506D01*
X0247306Y0104615D02*
X0254506D01*
X0247306Y0104715D02*
X0254506D01*
X0247306Y0104815D02*
X0254506D01*
X0247306Y0104915D02*
X0254506D01*
X0247306Y0105015D02*
X0254506D01*
X0231806Y0105115D02*
X0254506D01*
X0231006Y0105215D02*
X0254506D01*
X0230606Y0105315D02*
X0254506D01*
X0230206Y0105415D02*
X0254506D01*
X0230006Y0105515D02*
X0254506D01*
X0229706Y0105615D02*
X0254506D01*
X0229506Y0105715D02*
X0254506D01*
X0229306Y0105815D02*
X0254506D01*
X0229106Y0105915D02*
X0254506D01*
X0228906Y0106015D02*
X0254506D01*
X0228806Y0106115D02*
X0254506D01*
X0228606Y0106215D02*
X0254506D01*
X0228506Y0106315D02*
X0254506D01*
X0228306Y0106415D02*
X0254506D01*
X0228206Y0106515D02*
X0254506D01*
X0228106Y0106615D02*
X0254506D01*
X0228006Y0106715D02*
X0254506D01*
X0227906Y0106815D02*
X0254506D01*
X0227706Y0106915D02*
X0254406D01*
X0227606Y0107015D02*
X0254406D01*
X0227506Y0107115D02*
X0254406D01*
X0227506Y0107215D02*
X0254406D01*
X0227406Y0107315D02*
X0254406D01*
X0227306Y0107415D02*
X0254306D01*
X0227206Y0107515D02*
X0254306D01*
X0227106Y0107615D02*
X0254306D01*
X0227006Y0107715D02*
X0254206D01*
X0227006Y0107815D02*
X0254206D01*
X0226906Y0107915D02*
X0254206D01*
X0226806Y0108015D02*
X0254106D01*
X0226806Y0108115D02*
X0254106D01*
X0226706Y0108215D02*
X0254106D01*
X0226606Y0108315D02*
X0254006D01*
X0226606Y0108415D02*
X0254006D01*
X0226506Y0108515D02*
X0253906D01*
X0226506Y0108615D02*
X0253906D01*
X0226406Y0108715D02*
X0253806D01*
X0226406Y0108815D02*
X0253806D01*
X0226306Y0108915D02*
X0253706D01*
X0226306Y0109015D02*
X0253706D01*
X0226206Y0109115D02*
X0253606D01*
X0226206Y0109215D02*
X0253606D01*
X0226206Y0109315D02*
X0253506D01*
X0226106Y0109415D02*
X0253406D01*
X0226106Y0109515D02*
X0253406D01*
X0226106Y0109615D02*
X0253306D01*
X0226006Y0109715D02*
X0253206D01*
X0226006Y0109815D02*
X0253106D01*
X0226006Y0109915D02*
X0253106D01*
X0225906Y0110015D02*
X0253006D01*
X0225906Y0110115D02*
X0252906D01*
X0225906Y0110215D02*
X0252806D01*
X0225906Y0110315D02*
X0252706D01*
X0225806Y0110415D02*
X0252606D01*
X0225806Y0110515D02*
X0252506D01*
X0225806Y0110615D02*
X0252406D01*
X0225806Y0110715D02*
X0252306D01*
X0225806Y0110815D02*
X0252206D01*
X0225806Y0110915D02*
X0252006D01*
X0225806Y0111015D02*
X0251906D01*
X0225806Y0111115D02*
X0251806D01*
X0225806Y0111215D02*
X0251606D01*
X0225706Y0111315D02*
X0251506D01*
X0225706Y0111415D02*
X0251306D01*
X0225706Y0111515D02*
X0251106D01*
X0225706Y0111615D02*
X0250906D01*
X0225706Y0111715D02*
X0250706D01*
X0225706Y0111815D02*
X0250506D01*
X0225706Y0111915D02*
X0250206D01*
X0225706Y0112015D02*
X0249906D01*
X0225706Y0112115D02*
X0249606D01*
X0225706Y0112215D02*
X0249106D01*
X0225706Y0112315D02*
X0232906D01*
X0225706Y0112415D02*
X0232906D01*
X0225706Y0112515D02*
X0232906D01*
X0225706Y0112615D02*
X0232906D01*
X0225706Y0112715D02*
X0232906D01*
X0225706Y0112815D02*
X0232906D01*
X0225706Y0112915D02*
X0232906D01*
X0225706Y0113015D02*
X0232906D01*
X0225706Y0113115D02*
X0232906D01*
X0225706Y0113215D02*
X0232906D01*
X0225706Y0113315D02*
X0232906D01*
X0225706Y0113415D02*
X0232906D01*
X0225706Y0113515D02*
X0232906D01*
X0225706Y0113615D02*
X0232906D01*
X0225706Y0113715D02*
X0232906D01*
X0225706Y0113815D02*
X0232906D01*
X0225706Y0113915D02*
X0232906D01*
X0225706Y0114015D02*
X0232906D01*
X0225706Y0114115D02*
X0232906D01*
X0225706Y0114215D02*
X0232906D01*
X0225706Y0114315D02*
X0232906D01*
X0225706Y0114415D02*
X0232906D01*
X0225706Y0114515D02*
X0232906D01*
X0225706Y0114615D02*
X0232906D01*
X0225706Y0114715D02*
X0232906D01*
X0225706Y0114815D02*
X0232906D01*
X0225706Y0114915D02*
X0232906D01*
X0225706Y0115015D02*
X0232906D01*
X0225706Y0115115D02*
X0232906D01*
X0225706Y0115215D02*
X0232906D01*
X0225706Y0115315D02*
X0232906D01*
X0225706Y0115415D02*
X0232906D01*
X0225706Y0115515D02*
X0232906D01*
X0225706Y0115615D02*
X0232906D01*
X0225706Y0115715D02*
X0232906D01*
X0225706Y0115815D02*
X0232906D01*
X0225706Y0115915D02*
X0232906D01*
X0225706Y0116015D02*
X0232906D01*
X0225706Y0116115D02*
X0232906D01*
X0225706Y0116215D02*
X0232906D01*
X0225706Y0116315D02*
X0232906D01*
X0225706Y0116415D02*
X0232906D01*
X0225706Y0116515D02*
X0232906D01*
X0225706Y0116615D02*
X0232906D01*
X0225706Y0116715D02*
X0232906D01*
X0225706Y0116815D02*
X0232906D01*
X0225706Y0116915D02*
X0232906D01*
X0225706Y0117015D02*
X0232906D01*
X0225706Y0117115D02*
X0232906D01*
X0225706Y0117215D02*
X0232906D01*
X0225706Y0117315D02*
X0232906D01*
X0225706Y0117415D02*
X0232906D01*
X0225706Y0117515D02*
X0232906D01*
X0225706Y0117615D02*
X0232906D01*
X0225706Y0117715D02*
X0232906D01*
X0225706Y0117815D02*
X0232906D01*
X0225706Y0117915D02*
X0232906D01*
X0225706Y0118015D02*
X0232906D01*
X0225706Y0118115D02*
X0232906D01*
X0225706Y0118215D02*
X0232906D01*
X0225706Y0118315D02*
X0232906D01*
X0225706Y0118415D02*
X0232906D01*
X0225706Y0118515D02*
X0232906D01*
X0225706Y0118615D02*
X0232906D01*
X0225706Y0118715D02*
X0232906D01*
X0225706Y0118815D02*
X0232906D01*
X0225706Y0118915D02*
X0232906D01*
X0225706Y0119015D02*
X0232906D01*
X0225706Y0119115D02*
X0252106D01*
X0225706Y0119215D02*
X0252306D01*
X0225706Y0119315D02*
X0252506D01*
X0225706Y0119415D02*
X0252606D01*
X0225706Y0119515D02*
X0252706D01*
X0225706Y0119615D02*
X0252806D01*
X0225706Y0119715D02*
X0252906D01*
X0225706Y0119815D02*
X0252906D01*
X0225706Y0119915D02*
X0253006D01*
X0225706Y0120015D02*
X0253006D01*
X0225806Y0120115D02*
X0253006D01*
X0225806Y0120215D02*
X0253106D01*
X0225806Y0120315D02*
X0253106D01*
X0225806Y0120415D02*
X0253106D01*
X0225806Y0120515D02*
X0253106D01*
X0225806Y0120615D02*
X0253106D01*
X0225806Y0120715D02*
X0253106D01*
X0225806Y0120815D02*
X0253106D01*
X0225806Y0120915D02*
X0253106D01*
X0225906Y0121015D02*
X0253106D01*
X0225906Y0121115D02*
X0253106D01*
X0225906Y0121215D02*
X0253106D01*
X0225906Y0121315D02*
X0253106D01*
X0226006Y0121415D02*
X0253106D01*
X0226006Y0121515D02*
X0253106D01*
X0226006Y0121615D02*
X0253106D01*
X0226106Y0121715D02*
X0253106D01*
X0226106Y0121815D02*
X0253106D01*
X0226106Y0121915D02*
X0253106D01*
X0226206Y0122015D02*
X0253106D01*
X0226206Y0122115D02*
X0253106D01*
X0226206Y0122215D02*
X0253106D01*
X0226306Y0122315D02*
X0253106D01*
X0226306Y0122415D02*
X0253106D01*
X0226406Y0122515D02*
X0253106D01*
X0226406Y0122615D02*
X0253106D01*
X0226506Y0122715D02*
X0253106D01*
X0226506Y0122815D02*
X0253106D01*
X0226606Y0122915D02*
X0253106D01*
X0226606Y0123015D02*
X0253106D01*
X0226706Y0123115D02*
X0253106D01*
X0226806Y0123215D02*
X0253106D01*
X0226806Y0123315D02*
X0253106D01*
X0226906Y0123415D02*
X0253106D01*
X0227006Y0123515D02*
X0253106D01*
X0227006Y0123615D02*
X0253106D01*
X0227106Y0123715D02*
X0253106D01*
X0227206Y0123815D02*
X0253106D01*
X0227306Y0123915D02*
X0253106D01*
X0227406Y0124015D02*
X0253106D01*
X0227506Y0124115D02*
X0253106D01*
X0227506Y0124215D02*
X0253106D01*
X0227606Y0124315D02*
X0253106D01*
X0227706Y0124415D02*
X0253106D01*
X0227906Y0124515D02*
X0253106D01*
X0228006Y0124615D02*
X0253106D01*
X0228106Y0124715D02*
X0253106D01*
X0228206Y0124815D02*
X0253106D01*
X0228306Y0124915D02*
X0253106D01*
X0228506Y0125015D02*
X0253106D01*
X0228606Y0125115D02*
X0253106D01*
X0228806Y0125215D02*
X0253006D01*
X0228906Y0125315D02*
X0253006D01*
X0229106Y0125415D02*
X0253006D01*
X0229306Y0125515D02*
X0252906D01*
X0229506Y0125615D02*
X0252806D01*
X0229706Y0125715D02*
X0252806D01*
X0230006Y0125815D02*
X0252706D01*
X0230206Y0125915D02*
X0252606D01*
X0230606Y0126015D02*
X0252406D01*
X0231006Y0126115D02*
X0252206D01*
X0231806Y0126215D02*
X0251806D01*
X0294006Y0090615D02*
X0298606D01*
X0316406Y0090715D02*
X0322706D01*
X0293606D02*
X0299006D01*
X0316006Y0090815D02*
X0322906D01*
X0293406D02*
X0299206D01*
X0315606Y0090915D02*
X0323106D01*
X0293206D02*
X0299306D01*
X0315306Y0091015D02*
X0323206D01*
X0293106D02*
X0299506D01*
X0315106Y0091115D02*
X0323306D01*
X0293006D02*
X0299506D01*
X0314806Y0091215D02*
X0323406D01*
X0292906D02*
X0299606D01*
X0314606Y0091315D02*
X0323406D01*
X0292906D02*
X0299706D01*
X0314406Y0091415D02*
X0323506D01*
X0292806D02*
X0299706D01*
X0314306Y0091515D02*
X0323506D01*
X0292806D02*
X0299806D01*
X0314106Y0091615D02*
X0323606D01*
X0292806D02*
X0299806D01*
X0313906Y0091715D02*
X0323606D01*
X0292706D02*
X0299806D01*
X0313806Y0091815D02*
X0323606D01*
X0292706D02*
X0299906D01*
X0313706Y0091915D02*
X0323606D01*
X0292706D02*
X0299906D01*
X0313506Y0092015D02*
X0323606D01*
X0292706D02*
X0299906D01*
X0313406Y0092115D02*
X0323606D01*
X0292706D02*
X0299906D01*
X0313306Y0092215D02*
X0323606D01*
X0292706D02*
X0299906D01*
X0313206Y0092315D02*
X0323606D01*
X0292706D02*
X0299906D01*
X0313106Y0092415D02*
X0323606D01*
X0292706D02*
X0299906D01*
X0313006Y0092515D02*
X0323606D01*
X0292706D02*
X0299906D01*
X0312906Y0092615D02*
X0323606D01*
X0292706D02*
X0299906D01*
X0312806Y0092715D02*
X0323606D01*
X0292706D02*
X0299906D01*
X0312706Y0092815D02*
X0323606D01*
X0292706D02*
X0299906D01*
X0312606Y0092915D02*
X0323606D01*
X0292706D02*
X0299906D01*
X0312506Y0093015D02*
X0323606D01*
X0292706D02*
X0299906D01*
X0312406Y0093115D02*
X0323606D01*
X0292706D02*
X0299906D01*
X0312406Y0093215D02*
X0323606D01*
X0292706D02*
X0299906D01*
X0312306Y0093315D02*
X0323606D01*
X0292706D02*
X0299906D01*
X0312206Y0093415D02*
X0323606D01*
X0292706D02*
X0299906D01*
X0312106Y0093515D02*
X0323606D01*
X0292706D02*
X0299906D01*
X0312106Y0093615D02*
X0323606D01*
X0292706D02*
X0299906D01*
X0312006Y0093715D02*
X0323606D01*
X0292706D02*
X0299906D01*
X0311906Y0093815D02*
X0323606D01*
X0292706D02*
X0299906D01*
X0311906Y0093915D02*
X0323606D01*
X0292706D02*
X0299906D01*
X0311806Y0094015D02*
X0323606D01*
X0292706D02*
X0299906D01*
X0311806Y0094115D02*
X0323606D01*
X0292706D02*
X0299906D01*
X0311706Y0094215D02*
X0323606D01*
X0292706D02*
X0299906D01*
X0311706Y0094315D02*
X0323606D01*
X0292706D02*
X0299906D01*
X0311606Y0094415D02*
X0323606D01*
X0292706D02*
X0299906D01*
X0311606Y0094515D02*
X0323606D01*
X0292706D02*
X0299906D01*
X0311506Y0094615D02*
X0323606D01*
X0292706D02*
X0299906D01*
X0311506Y0094715D02*
X0323606D01*
X0292706D02*
X0299906D01*
X0311506Y0094815D02*
X0323606D01*
X0292706D02*
X0299906D01*
X0311406Y0094915D02*
X0323606D01*
X0292706D02*
X0299906D01*
X0311406Y0095015D02*
X0323606D01*
X0292706D02*
X0299906D01*
X0311406Y0095115D02*
X0323606D01*
X0292706D02*
X0299906D01*
X0311306Y0095215D02*
X0323606D01*
X0292706D02*
X0299906D01*
X0311306Y0095315D02*
X0323606D01*
X0292706D02*
X0299906D01*
X0311306Y0095415D02*
X0323606D01*
X0292706D02*
X0299906D01*
X0311206Y0095515D02*
X0323606D01*
X0292706D02*
X0299906D01*
X0311206Y0095615D02*
X0323606D01*
X0292706D02*
X0299906D01*
X0311206Y0095715D02*
X0323606D01*
X0292706D02*
X0299906D01*
X0311206Y0095815D02*
X0323606D01*
X0292706D02*
X0299906D01*
X0311106Y0095915D02*
X0323606D01*
X0292706D02*
X0299906D01*
X0311106Y0096015D02*
X0323606D01*
X0292706D02*
X0299906D01*
X0311106Y0096115D02*
X0323606D01*
X0292706D02*
X0299906D01*
X0311106Y0096215D02*
X0323606D01*
X0292706D02*
X0299906D01*
X0311106Y0096315D02*
X0323606D01*
X0292706D02*
X0299906D01*
X0311106Y0096415D02*
X0323606D01*
X0292706D02*
X0299906D01*
X0311106Y0096515D02*
X0323606D01*
X0292706D02*
X0299906D01*
X0311106Y0096615D02*
X0323606D01*
X0292706D02*
X0299906D01*
X0311006Y0096715D02*
X0323606D01*
X0292706D02*
X0299906D01*
X0311006Y0096815D02*
X0323606D01*
X0292706D02*
X0299906D01*
X0311006Y0096915D02*
X0323506D01*
X0292706D02*
X0299906D01*
X0311006Y0097015D02*
X0323506D01*
X0292706D02*
X0299906D01*
X0311006Y0097115D02*
X0323406D01*
X0292706D02*
X0299906D01*
X0311006Y0097215D02*
X0323406D01*
X0292706D02*
X0299906D01*
X0311006Y0097315D02*
X0323306D01*
X0292706D02*
X0299906D01*
X0311006Y0097415D02*
X0323206D01*
X0292706D02*
X0299906D01*
X0311006Y0097515D02*
X0323106D01*
X0292706D02*
X0299906D01*
X0311006Y0097615D02*
X0322906D01*
X0292706D02*
X0299906D01*
X0311006Y0097715D02*
X0322706D01*
X0292706D02*
X0299906D01*
X0311006Y0097815D02*
X0322206D01*
X0292706D02*
X0299906D01*
X0311006Y0097915D02*
X0318206D01*
X0292706D02*
X0299906D01*
X0311006Y0098015D02*
X0318206D01*
X0292706D02*
X0299906D01*
X0311006Y0098115D02*
X0318206D01*
X0292706D02*
X0299906D01*
X0311006Y0098215D02*
X0318206D01*
X0292706D02*
X0299906D01*
X0311006Y0098315D02*
X0318206D01*
X0292706D02*
X0299906D01*
X0311006Y0098415D02*
X0318206D01*
X0292706D02*
X0299906D01*
X0311006Y0098515D02*
X0318206D01*
X0292706D02*
X0299906D01*
X0311006Y0098615D02*
X0318206D01*
X0292706D02*
X0299906D01*
X0311006Y0098715D02*
X0318206D01*
X0292706D02*
X0299906D01*
X0311006Y0098815D02*
X0318206D01*
X0292706D02*
X0299906D01*
X0311006Y0098915D02*
X0318206D01*
X0292706D02*
X0299906D01*
X0311006Y0099015D02*
X0318206D01*
X0292706D02*
X0299906D01*
X0311006Y0099115D02*
X0318206D01*
X0292706D02*
X0299906D01*
X0311006Y0099215D02*
X0318206D01*
X0292706D02*
X0299906D01*
X0311006Y0099315D02*
X0318206D01*
X0292706D02*
X0299906D01*
X0311006Y0099415D02*
X0318206D01*
X0292706D02*
X0299906D01*
X0311006Y0099515D02*
X0318206D01*
X0292706D02*
X0299906D01*
X0311006Y0099615D02*
X0318206D01*
X0292706D02*
X0299906D01*
X0311006Y0099715D02*
X0318206D01*
X0292706D02*
X0299906D01*
X0311006Y0099815D02*
X0318206D01*
X0292706D02*
X0299906D01*
X0311006Y0099915D02*
X0318206D01*
X0292706D02*
X0299906D01*
X0311006Y0100015D02*
X0318206D01*
X0292706D02*
X0299906D01*
X0311006Y0100115D02*
X0318206D01*
X0292706D02*
X0299906D01*
X0311006Y0100215D02*
X0318206D01*
X0292706D02*
X0299906D01*
X0311006Y0100315D02*
X0318206D01*
X0292706D02*
X0299906D01*
X0311006Y0100415D02*
X0318206D01*
X0292706D02*
X0299906D01*
X0311006Y0100515D02*
X0318206D01*
X0292706D02*
X0299906D01*
X0311006Y0100615D02*
X0318206D01*
X0292706D02*
X0299906D01*
X0311006Y0100715D02*
X0318206D01*
X0292706D02*
X0299906D01*
X0311006Y0100815D02*
X0318206D01*
X0292706D02*
X0299906D01*
X0311006Y0100915D02*
X0318206D01*
X0292706D02*
X0299906D01*
X0311006Y0101015D02*
X0318206D01*
X0292706D02*
X0299906D01*
X0311006Y0101115D02*
X0318206D01*
X0292706D02*
X0299906D01*
X0311006Y0101215D02*
X0318206D01*
X0292706D02*
X0299906D01*
X0311006Y0101315D02*
X0318206D01*
X0292706D02*
X0299906D01*
X0311006Y0101415D02*
X0318206D01*
X0292706D02*
X0299906D01*
X0311006Y0101515D02*
X0318206D01*
X0292706D02*
X0299906D01*
X0311006Y0101615D02*
X0318206D01*
X0292706D02*
X0299906D01*
X0311006Y0101715D02*
X0318206D01*
X0292706D02*
X0299906D01*
X0311006Y0101815D02*
X0318206D01*
X0292706D02*
X0299906D01*
X0311006Y0101915D02*
X0318206D01*
X0292706D02*
X0299906D01*
X0311006Y0102015D02*
X0318206D01*
X0292706D02*
X0299906D01*
X0311006Y0102115D02*
X0318206D01*
X0292706D02*
X0299906D01*
X0311006Y0102215D02*
X0318206D01*
X0292706D02*
X0299906D01*
X0311006Y0102315D02*
X0318206D01*
X0292706D02*
X0299906D01*
X0311006Y0102415D02*
X0318206D01*
X0292706D02*
X0299906D01*
X0311006Y0102515D02*
X0318206D01*
X0292706D02*
X0299906D01*
X0311006Y0102615D02*
X0318206D01*
X0292706D02*
X0299906D01*
X0311006Y0102715D02*
X0318206D01*
X0292706D02*
X0299906D01*
X0311006Y0102815D02*
X0318206D01*
X0292706D02*
X0299906D01*
X0311006Y0102915D02*
X0318206D01*
X0292706D02*
X0299906D01*
X0311006Y0103015D02*
X0318206D01*
X0292706D02*
X0299906D01*
X0311006Y0103115D02*
X0318206D01*
X0292706D02*
X0299906D01*
X0311006Y0103215D02*
X0318206D01*
X0292706D02*
X0299906D01*
X0311006Y0103315D02*
X0318206D01*
X0292706D02*
X0299906D01*
X0311006Y0103415D02*
X0318206D01*
X0292706D02*
X0299906D01*
X0311006Y0103515D02*
X0318206D01*
X0292706D02*
X0299906D01*
X0311006Y0103615D02*
X0318206D01*
X0292706D02*
X0299906D01*
X0311006Y0103715D02*
X0318206D01*
X0292706D02*
X0299906D01*
X0311006Y0103815D02*
X0318206D01*
X0292706D02*
X0299906D01*
X0311006Y0103915D02*
X0318206D01*
X0292706D02*
X0299906D01*
X0311006Y0104015D02*
X0318206D01*
X0292706D02*
X0299906D01*
X0311006Y0104115D02*
X0318206D01*
X0292706D02*
X0299906D01*
X0311006Y0104215D02*
X0318206D01*
X0292706D02*
X0299906D01*
X0311006Y0104315D02*
X0318206D01*
X0292706D02*
X0299906D01*
X0311006Y0104415D02*
X0318206D01*
X0292706D02*
X0299906D01*
X0311006Y0104515D02*
X0318206D01*
X0292706D02*
X0299906D01*
X0311006Y0104615D02*
X0318206D01*
X0292706D02*
X0299906D01*
X0311006Y0104715D02*
X0318206D01*
X0292706D02*
X0299906D01*
X0311006Y0104815D02*
X0318206D01*
X0292706D02*
X0299906D01*
X0311006Y0104915D02*
X0318206D01*
X0292706D02*
X0299906D01*
X0311006Y0105015D02*
X0318206D01*
X0292706D02*
X0299906D01*
X0311006Y0105115D02*
X0318206D01*
X0292706D02*
X0299906D01*
X0311006Y0105215D02*
X0318206D01*
X0292706D02*
X0299906D01*
X0311006Y0105315D02*
X0318206D01*
X0292706D02*
X0299906D01*
X0311006Y0105415D02*
X0318206D01*
X0292706D02*
X0299906D01*
X0311006Y0105515D02*
X0318206D01*
X0292706D02*
X0299906D01*
X0311006Y0105615D02*
X0318206D01*
X0292706D02*
X0299906D01*
X0311006Y0105715D02*
X0318206D01*
X0292706D02*
X0299906D01*
X0311006Y0105815D02*
X0318206D01*
X0292706D02*
X0299906D01*
X0311006Y0105915D02*
X0318206D01*
X0292706D02*
X0299906D01*
X0311006Y0106015D02*
X0318206D01*
X0292706D02*
X0299906D01*
X0311006Y0106115D02*
X0318206D01*
X0292706D02*
X0299906D01*
X0311006Y0106215D02*
X0318206D01*
X0292706D02*
X0299906D01*
X0311006Y0106315D02*
X0318206D01*
X0292706D02*
X0299906D01*
X0311006Y0106415D02*
X0318206D01*
X0292706D02*
X0299906D01*
X0311006Y0106515D02*
X0318206D01*
X0292706D02*
X0299906D01*
X0311006Y0106615D02*
X0318206D01*
X0292706D02*
X0299906D01*
X0311006Y0106715D02*
X0318206D01*
X0292706D02*
X0299906D01*
X0311006Y0106815D02*
X0318206D01*
X0292706D02*
X0299906D01*
X0311006Y0106915D02*
X0321906D01*
X0292706D02*
X0303606D01*
X0311006Y0107015D02*
X0322206D01*
X0292706D02*
X0303806D01*
X0311006Y0107115D02*
X0322306D01*
X0292706D02*
X0304006D01*
X0311006Y0107215D02*
X0322506D01*
X0292706D02*
X0304106D01*
X0311006Y0107315D02*
X0322606D01*
X0292706D02*
X0304206D01*
X0311006Y0107415D02*
X0322706D01*
X0292706D02*
X0304306D01*
X0311006Y0107515D02*
X0322706D01*
X0292706D02*
X0304406D01*
X0311006Y0107615D02*
X0322806D01*
X0292706D02*
X0304506D01*
X0311006Y0107715D02*
X0322906D01*
X0292706D02*
X0304506D01*
X0311006Y0107815D02*
X0322906D01*
X0292706D02*
X0304506D01*
X0311006Y0107915D02*
X0322906D01*
X0292706D02*
X0304606D01*
X0311006Y0108015D02*
X0323006D01*
X0292706D02*
X0304606D01*
X0311006Y0108115D02*
X0323006D01*
X0292706D02*
X0304606D01*
X0311006Y0108215D02*
X0323006D01*
X0292706D02*
X0304606D01*
X0311006Y0108315D02*
X0323006D01*
X0292706D02*
X0304606D01*
X0311006Y0108415D02*
X0323006D01*
X0292706D02*
X0304606D01*
X0311006Y0108515D02*
X0323006D01*
X0292706D02*
X0304606D01*
X0311006Y0108615D02*
X0323006D01*
X0292706D02*
X0304606D01*
X0311006Y0108715D02*
X0323006D01*
X0292706D02*
X0304606D01*
X0311006Y0108815D02*
X0323006D01*
X0292706D02*
X0304606D01*
X0311006Y0108915D02*
X0323006D01*
X0292706D02*
X0304606D01*
X0311006Y0109015D02*
X0323006D01*
X0292706D02*
X0304606D01*
X0311006Y0109115D02*
X0323006D01*
X0292706D02*
X0304606D01*
X0311006Y0109215D02*
X0323006D01*
X0292706D02*
X0304606D01*
X0311006Y0109315D02*
X0323006D01*
X0292706D02*
X0304606D01*
X0311006Y0109415D02*
X0323006D01*
X0292706D02*
X0304606D01*
X0311006Y0109515D02*
X0323006D01*
X0292706D02*
X0304606D01*
X0311006Y0109615D02*
X0323006D01*
X0292706D02*
X0304606D01*
X0311006Y0109715D02*
X0323006D01*
X0292706D02*
X0304606D01*
X0311006Y0109815D02*
X0323006D01*
X0292706D02*
X0304606D01*
X0311006Y0109915D02*
X0323006D01*
X0292706D02*
X0304606D01*
X0311006Y0110015D02*
X0323006D01*
X0292706D02*
X0304606D01*
X0311006Y0110115D02*
X0323006D01*
X0292706D02*
X0304606D01*
X0311006Y0110215D02*
X0323006D01*
X0292706D02*
X0304606D01*
X0311006Y0110315D02*
X0323006D01*
X0292706D02*
X0304606D01*
X0311006Y0110415D02*
X0323006D01*
X0292706D02*
X0304606D01*
X0311006Y0110515D02*
X0323006D01*
X0292706D02*
X0304606D01*
X0311006Y0110615D02*
X0323006D01*
X0292706D02*
X0304606D01*
X0311006Y0110715D02*
X0323006D01*
X0292706D02*
X0304606D01*
X0311006Y0110815D02*
X0323006D01*
X0292706D02*
X0304606D01*
X0311006Y0110915D02*
X0323006D01*
X0292706D02*
X0304606D01*
X0311006Y0111015D02*
X0323006D01*
X0292706D02*
X0304606D01*
X0311006Y0111115D02*
X0323006D01*
X0292706D02*
X0304606D01*
X0311006Y0111215D02*
X0323006D01*
X0292706D02*
X0304606D01*
X0311006Y0111315D02*
X0323006D01*
X0292706D02*
X0304606D01*
X0311006Y0111415D02*
X0323006D01*
X0292706D02*
X0304606D01*
X0311006Y0111515D02*
X0323006D01*
X0292706D02*
X0304606D01*
X0311006Y0111615D02*
X0323006D01*
X0292706D02*
X0304606D01*
X0311006Y0111715D02*
X0323006D01*
X0292706D02*
X0304606D01*
X0311006Y0111815D02*
X0323006D01*
X0292706D02*
X0304606D01*
X0311006Y0111915D02*
X0323006D01*
X0292706D02*
X0304606D01*
X0311006Y0112015D02*
X0323006D01*
X0292706D02*
X0304606D01*
X0311006Y0112115D02*
X0323006D01*
X0292706D02*
X0304606D01*
X0311006Y0112215D02*
X0323006D01*
X0292706D02*
X0304606D01*
X0311006Y0112315D02*
X0323006D01*
X0292706D02*
X0304606D01*
X0311006Y0112415D02*
X0323006D01*
X0292706D02*
X0304606D01*
X0311006Y0112515D02*
X0323006D01*
X0292706D02*
X0304606D01*
X0311006Y0112615D02*
X0323006D01*
X0292706D02*
X0304606D01*
X0311006Y0112715D02*
X0323006D01*
X0292706D02*
X0304606D01*
X0311006Y0112815D02*
X0323006D01*
X0292706D02*
X0304606D01*
X0311006Y0112915D02*
X0323006D01*
X0292706D02*
X0304606D01*
X0311006Y0113015D02*
X0322906D01*
X0292706D02*
X0304606D01*
X0311006Y0113115D02*
X0322906D01*
X0292706D02*
X0304506D01*
X0311006Y0113215D02*
X0322906D01*
X0292706D02*
X0304506D01*
X0311006Y0113315D02*
X0322806D01*
X0292706D02*
X0304506D01*
X0311006Y0113415D02*
X0322806D01*
X0292706D02*
X0304406D01*
X0311006Y0113515D02*
X0322706D01*
X0292706D02*
X0304306D01*
X0311006Y0113615D02*
X0322606D01*
X0292706D02*
X0304206D01*
X0311006Y0113715D02*
X0322506D01*
X0292706D02*
X0304106D01*
X0311006Y0113815D02*
X0322406D01*
X0292706D02*
X0304006D01*
X0311006Y0113915D02*
X0322206D01*
X0292706D02*
X0303806D01*
X0311006Y0114015D02*
X0321906D01*
X0292706D02*
X0303506D01*
X0311006Y0114115D02*
X0318206D01*
X0292706D02*
X0299906D01*
X0311006Y0114215D02*
X0318206D01*
X0292706D02*
X0299906D01*
X0311006Y0114315D02*
X0318206D01*
X0292706D02*
X0299906D01*
X0311006Y0114415D02*
X0318206D01*
X0292706D02*
X0299906D01*
X0311006Y0114515D02*
X0318206D01*
X0292706D02*
X0299906D01*
X0311006Y0114615D02*
X0318206D01*
X0292706D02*
X0299906D01*
X0311006Y0114715D02*
X0318206D01*
X0292706D02*
X0299906D01*
X0311006Y0114815D02*
X0318206D01*
X0292706D02*
X0299906D01*
X0311006Y0114915D02*
X0318206D01*
X0292706D02*
X0299906D01*
X0311006Y0115015D02*
X0318206D01*
X0292706D02*
X0299906D01*
X0311006Y0115115D02*
X0318206D01*
X0292706D02*
X0299906D01*
X0311006Y0115215D02*
X0318206D01*
X0292706D02*
X0299906D01*
X0311006Y0115315D02*
X0318206D01*
X0292706D02*
X0299906D01*
X0311006Y0115415D02*
X0318206D01*
X0292706D02*
X0299906D01*
X0311006Y0115515D02*
X0318206D01*
X0292706D02*
X0299906D01*
X0311006Y0115615D02*
X0318206D01*
X0292706D02*
X0299906D01*
X0311006Y0115715D02*
X0318206D01*
X0292706D02*
X0299906D01*
X0311006Y0115815D02*
X0318206D01*
X0292706D02*
X0299906D01*
X0311006Y0115915D02*
X0318206D01*
X0292706D02*
X0299906D01*
X0311006Y0116015D02*
X0318206D01*
X0292706D02*
X0299906D01*
X0311006Y0116115D02*
X0318206D01*
X0292706D02*
X0299906D01*
X0311006Y0116215D02*
X0318206D01*
X0292706D02*
X0299906D01*
X0311006Y0116315D02*
X0318206D01*
X0292706D02*
X0299906D01*
X0311006Y0116415D02*
X0318206D01*
X0292706D02*
X0299906D01*
X0311006Y0116515D02*
X0318206D01*
X0292706D02*
X0299906D01*
X0311006Y0116615D02*
X0318206D01*
X0292706D02*
X0299906D01*
X0311006Y0116715D02*
X0318206D01*
X0292706D02*
X0299906D01*
X0311006Y0116815D02*
X0318206D01*
X0292706D02*
X0299906D01*
X0311006Y0116915D02*
X0318206D01*
X0292706D02*
X0299906D01*
X0311006Y0117015D02*
X0318206D01*
X0292706D02*
X0299906D01*
X0311006Y0117115D02*
X0318206D01*
X0292706D02*
X0299906D01*
X0311006Y0117215D02*
X0318206D01*
X0292706D02*
X0299906D01*
X0311006Y0117315D02*
X0318206D01*
X0292706D02*
X0299906D01*
X0311006Y0117415D02*
X0318206D01*
X0292706D02*
X0299906D01*
X0311006Y0117515D02*
X0318206D01*
X0292706D02*
X0299906D01*
X0311006Y0117615D02*
X0318206D01*
X0292706D02*
X0299906D01*
X0311006Y0117715D02*
X0318206D01*
X0292706D02*
X0299906D01*
X0311006Y0117815D02*
X0318206D01*
X0292706D02*
X0299906D01*
X0311006Y0117915D02*
X0318206D01*
X0292706D02*
X0299906D01*
X0311006Y0118015D02*
X0318206D01*
X0292706D02*
X0299906D01*
X0311006Y0118115D02*
X0318206D01*
X0292706D02*
X0299906D01*
X0311006Y0118215D02*
X0318206D01*
X0292706D02*
X0299906D01*
X0311006Y0118315D02*
X0318206D01*
X0292706D02*
X0299906D01*
X0311006Y0118415D02*
X0318206D01*
X0292706D02*
X0299906D01*
X0311006Y0118515D02*
X0318206D01*
X0292706D02*
X0299906D01*
X0311006Y0118615D02*
X0318206D01*
X0292706D02*
X0299906D01*
X0311006Y0118715D02*
X0318206D01*
X0292706D02*
X0299906D01*
X0311006Y0118815D02*
X0318206D01*
X0292706D02*
X0299906D01*
X0311006Y0118915D02*
X0318206D01*
X0292706D02*
X0299906D01*
X0311006Y0119015D02*
X0318206D01*
X0292706D02*
X0299906D01*
X0311006Y0119115D02*
X0318206D01*
X0292706D02*
X0306406D01*
X0311006Y0119215D02*
X0318206D01*
X0292706D02*
X0306706D01*
X0311006Y0119315D02*
X0318206D01*
X0292706D02*
X0306806D01*
X0311006Y0119415D02*
X0318206D01*
X0292706D02*
X0306906D01*
X0311006Y0119515D02*
X0318206D01*
X0292706D02*
X0307006D01*
X0311006Y0119615D02*
X0318206D01*
X0292706D02*
X0307106D01*
X0311006Y0119715D02*
X0318206D01*
X0292706D02*
X0307206D01*
X0311006Y0119815D02*
X0318206D01*
X0292706D02*
X0307306D01*
X0311006Y0119915D02*
X0318206D01*
X0292706D02*
X0307306D01*
X0311006Y0120015D02*
X0318206D01*
X0292706D02*
X0307306D01*
X0311006Y0120115D02*
X0318206D01*
X0292706D02*
X0307406D01*
X0311006Y0120215D02*
X0318206D01*
X0292706D02*
X0307406D01*
X0311006Y0120315D02*
X0318206D01*
X0292706D02*
X0307406D01*
X0311106Y0120415D02*
X0318206D01*
X0292706D02*
X0307406D01*
X0311106Y0120515D02*
X0318206D01*
X0292706D02*
X0307406D01*
X0311106Y0120615D02*
X0318206D01*
X0292706D02*
X0307406D01*
X0311106Y0120715D02*
X0318206D01*
X0292806D02*
X0307406D01*
X0311106Y0120815D02*
X0318106D01*
X0292806D02*
X0307406D01*
X0311206Y0120915D02*
X0318106D01*
X0292806D02*
X0307406D01*
X0311306Y0121015D02*
X0318006D01*
X0292806D02*
X0307406D01*
X0311306Y0121115D02*
X0317906D01*
X0292806D02*
X0307406D01*
X0311406Y0121215D02*
X0317906D01*
X0292906D02*
X0307406D01*
X0311506Y0121315D02*
X0317806D01*
X0292906D02*
X0307406D01*
X0311606Y0121415D02*
X0317606D01*
X0292906D02*
X0307406D01*
X0311806Y0121515D02*
X0317506D01*
X0292906D02*
X0307406D01*
X0312006Y0121615D02*
X0317206D01*
X0293006D02*
X0307406D01*
X0293006Y0121715D02*
X0307406D01*
X0293006Y0121815D02*
X0307406D01*
X0293106Y0121915D02*
X0307406D01*
X0293106Y0122015D02*
X0307406D01*
X0293106Y0122115D02*
X0307406D01*
X0293206Y0122215D02*
X0307406D01*
X0293206Y0122315D02*
X0307406D01*
X0293306Y0122415D02*
X0307406D01*
X0293306Y0122515D02*
X0307406D01*
X0293406Y0122615D02*
X0307406D01*
X0293406Y0122715D02*
X0307406D01*
X0293506Y0122815D02*
X0307406D01*
X0293506Y0122915D02*
X0307406D01*
X0293606Y0123015D02*
X0307406D01*
X0293606Y0123115D02*
X0307406D01*
X0293706Y0123215D02*
X0307406D01*
X0293806Y0123315D02*
X0307406D01*
X0293806Y0123415D02*
X0307406D01*
X0293906Y0123515D02*
X0307406D01*
X0294006Y0123615D02*
X0307406D01*
X0294106Y0123715D02*
X0307406D01*
X0294106Y0123815D02*
X0307406D01*
X0294206Y0123915D02*
X0307406D01*
X0294306Y0124015D02*
X0307406D01*
X0294406Y0124115D02*
X0307406D01*
X0294506Y0124215D02*
X0307406D01*
X0294606Y0124315D02*
X0307406D01*
X0294706Y0124415D02*
X0307406D01*
X0294806Y0124515D02*
X0307406D01*
X0294906Y0124615D02*
X0307406D01*
X0295006Y0124715D02*
X0307406D01*
X0295106Y0124815D02*
X0307406D01*
X0295306Y0124915D02*
X0307406D01*
X0295406Y0125015D02*
X0307406D01*
X0295506Y0125115D02*
X0307406D01*
X0295706Y0125215D02*
X0307306D01*
X0295906Y0125315D02*
X0307306D01*
X0296006Y0125415D02*
X0307306D01*
X0296206Y0125515D02*
X0307206D01*
X0296406Y0125615D02*
X0307206D01*
X0296606Y0125715D02*
X0307106D01*
X0296906Y0125815D02*
X0307006D01*
X0297206Y0125915D02*
X0306906D01*
X0297506Y0126015D02*
X0306706D01*
X0298006Y0126115D02*
X0306506D01*
X0298706Y0126215D02*
X0306106D01*
G54D57*
X0027874Y0005748D03*
X0017874D03*
X0007874D03*
X0027874Y0015748D03*
X0017874D03*
G54D58*
X0007874Y0015748D03*
G54D59*
X0043307Y0033858D03*
X0135827Y0008268D03*
X0124409Y0023622D03*
X0215167Y0044094D03*
X021063D03*
X0288292Y0127165D03*
X0283755D03*
X0083858Y0157087D03*
X0122835Y0014961D03*
X011811Y0010236D03*
X0101969Y0033465D03*
X021063Y0028346D03*
X0148819Y0059449D03*
X0277165Y0020472D03*
X0142519Y0063386D03*
X0155905Y0066929D03*
X0122834Y0071653D03*
X0125197Y0066929D03*
X0170472Y0029921D03*
X0106299Y0052362D03*
X0228346Y0084646D03*
X022441Y0049213D03*
X0116142Y0070472D03*
X0231102Y0042126D03*
X0105118Y0074016D03*
X009252Y0042126D03*
X0109055Y0038583D03*
X0202362Y0018898D03*
X0097638Y003937D03*
X0078347Y002874D03*
X0005502Y0032274D03*
X0042126Y0020079D03*
X0291732Y0027165D03*
Y001063D03*
X0009449Y0115748D03*
Y0084252D03*
X0066142Y0023228D03*
X0036614Y0018898D03*
X0093307Y0018504D03*
X0085039Y0071653D03*
X007874Y0137795D03*
G54D60*
X0015748Y0200787D03*
M02*